<?xml version="1.0" encoding="UTF-8" standalone="no"?>
<!-- Created with Inkscape (http://www.inkscape.org/) -->

<svg
   width="210mm"
   height="297mm"
   viewBox="0 0 210 297"
   version="1.1"
   id="svg5"
   inkscape:version="1.1.1 (3bf5ae0d25, 2021-09-20)"
   sodipodi:docname="bergianska.svg"
   xmlns:inkscape="http://www.inkscape.org/namespaces/inkscape"
   xmlns:sodipodi="http://sodipodi.sourceforge.net/DTD/sodipodi-0.dtd"
   xmlns="http://www.w3.org/2000/svg"
   xmlns:svg="http://www.w3.org/2000/svg">
  <sodipodi:namedview
     id="namedview7"
     pagecolor="#ffffff"
     bordercolor="#666666"
     borderopacity="1.0"
     inkscape:pageshadow="2"
     inkscape:pageopacity="0.0"
     inkscape:pagecheckerboard="0"
     inkscape:document-units="mm"
     showgrid="false"
     inkscape:zoom="0.72337262"
     inkscape:cx="475.55021"
     inkscape:cy="492.83038"
     inkscape:window-width="1920"
     inkscape:window-height="1001"
     inkscape:window-x="-9"
     inkscape:window-y="-9"
     inkscape:window-maximized="1"
     inkscape:current-layer="layer1" />
  <defs
     id="defs2" />
  <g
     inkscape:label="Layer 1"
     inkscape:groupmode="layer"
     id="layer1">
    <g
       transform="matrix(0.26458333,0,0,0.26458333,75.127751,135.54701)"
       id="g912"
       inkscape:export-filename="C:\Users\marhi686\johannesson_lab\johannesson-lab\images\funding_logos\bergianska.png"
       inkscape:export-xdpi="300"
       inkscape:export-ydpi="300">
      <rect
         width="462.76001"
         height="122.11"
         transform="translate(17,16)"
         fill="none"
         id="rect824"
         x="0"
         y="0" />
      <path
         d="m 122,121.7 c -1.71,0.25 -9.54,1.62 -15,1.62 -8.18,0 -15.08,-1 -15.08,-4.09 0,-1.62 2,-2 7.84,-4.35 12.7,-5.2 17.81,-9.46 17.81,-9.46 -10.14,-0.76 -29.91,-4.17 -29.91,-9.71 0,-0.85 0.68,-1.19 1.7,-1.19 1.02,0 2.82,0.17 4.61,0.17 4.85,0 13.71,-1.19 15.42,-2 -3.15,-1.1 -26,-10.39 -26,-15.76 0,-1.28 0.94,-1.53 1.87,-1.53 3,0 8.87,1.28 17.3,1.28 6,0 7.76,-0.43 15.08,-0.43 a 31.11,31.11 0 0 1 9.72,1.45 l 0.08,-0.09 c -3.07,-2 -7.75,-6.9 -7.75,-11.84 0,-2 0.94,-2.22 1.62,-2.22 1.79,0 6.13,3.07 10,4.52 5,1.87 12.61,3.15 16.27,6.56 2.56,-7.84 10.31,-19.43 12.7,-24.28 1.19,-2.47 1.44,-3.5 2.21,-3.5 0.51,0 1.11,0.94 1.62,2.13 0.34,-0.85 1.87,-3.92 2.64,-3.92 0.77,0 1.71,2.22 1.71,2.22 0,0 1.44,-2.9 2.38,-2.9 1.19,0 2.3,3.5 2.3,3.5 0,0 1,-2.22 2.05,-2.22 1.7,0 1.87,4.77 6.64,12.87 4.26,7.24 7.42,12.1 8.35,14.57 a 13.08,13.08 0 0 1 5.37,-2.47 c 3.32,-0.77 6.9,-0.77 9.71,-1.37 3.41,-0.76 5.12,-2.13 7.42,-2.13 a 1.55,1.55 0 0 1 1.62,1.71 c 0,2.38 -3.84,7.24 -11.17,11.75 l 0.09,0.09 c 6.56,-1.7 16.27,-0.6 23.77,-1.79 10.82,-1.7 15,-4 19.17,-4 0.94,0 2.47,0.42 2.47,2 0,1.19 -0.42,3.4 -5.45,7.32 a 48.87,48.87 0 0 1 -10.31,6.48 c 2.05,1 6.05,2.21 15.08,2.21 1.71,0 4.43,-0.08 5,-0.08 1,0 2.21,0.34 2.21,1.45 0,1.28 -0.42,3.15 -8.35,6.13 a 59.66,59.66 0 0 1 -16.7,3.58 V 104 c 9.12,4.51 13.72,4.85 13.72,8.26 0,3.75 -6.64,3.84 -10.73,3.84 a 152.581,152.581 0 0 1 -15.26,-0.77 l -0.08,0.08 c 6.48,2.39 11.76,5.46 11.76,7.25 0,1.19 -2,2.21 -6.31,2.21 -5.71,0 -10.14,-1.28 -12.44,-2.9 l -0.08,0.09 c 2.89,5.2 7.15,9 7.15,11.76 0,1.87 -1.53,3.24 -4.51,3.24 -13,0 -29.57,-14.06 -29.57,-14.06 -0.42,4.17 -0.59,9.11 -0.59,14.57 0,3.23 -0.34,8.77 -4.26,8.77 -8.44,0 -16,-21.72 -16,-21.72 0,0 -20.28,14.22 -30.68,14.22 -3.92,0 -5,-1.19 -5,-2.13 0,-2.3 2.38,-3.57 7.58,-10.73 l -0.09,-0.09 c -4.17,2 -14.14,4.35 -18.57,4.35 -1.62,0 -2.64,-0.26 -2.64,-1.36 0,-2.22 6.81,-6.05 8.6,-7.08 z m -4.35,-44.22 c -3.32,0 -10,0.25 -15.08,0.25 -8.77,0 -15.42,-1.28 -17,-1.28 -0.42,0 -0.94,0 -0.94,0.52 0,1.79 5,5.36 18.66,11.5 a 100.9,100.9 0 0 0 27.27,7.58 c 0,0 7,-3.92 14.23,-4.26 -1.36,-1.45 -9.89,-4.26 -19.6,-5.54 -10.14,-1.36 -13.72,-1.1 -13.72,-1.53 a 5.28,5.28 0 0 1 2.3,-0.26 c 2.39,0 6.65,0.26 12.87,0.94 14.06,1.45 18.49,3.75 19.43,4 C 145,87.53 129.37,77.48 117.69,77.48 Z m -9.2,17.46 A 96.75,96.75 0 0 1 94.9,95.88 c -2.3,0 -4.34,-0.25 -5.28,-0.25 -0.43,0 -0.6,0.08 -0.6,0.42 0,0.94 2.39,3.41 13,5.71 a 112.71,112.71 0 0 0 17.3,2.3 56.82,56.82 0 0 0 6.68,-4.86 155.868,155.868 0 0 1 -17.51,-4.26 z m 43.88,1 c -1.11,-1.62 -3.49,-2.47 -6.22,-2.47 a 30.1,30.1 0 0 0 -14.4,3.92 c -4.94,3.06 -13.8,10.39 -23.94,15.42 -8.77,4.37 -14.19,5.19 -14.19,6.42 0,0.76 1.7,2.72 12.18,2.72 10.48,0 25,-2.72 33.83,-9 8.83,-6.28 13.89,-10.56 15.93,-11.67 1.71,-0.94 2,-1.28 2,-2 0,-0.72 -1.11,-2 -4.52,-2 -3.41,0 -9.11,2.47 -15,5.54 -4.35,2.21 -5.71,2.89 -6.05,2.89 -0.17,0 -0.17,-0.08 -0.17,-0.16 0,-0.43 1.36,-0.86 5.62,-3.41 4.26,-2.55 7.41,-4.77 10.57,-5.63 A 16.161,16.161 0 0 1 152,96 Z m -20.79,24.62 c -2.47,0.6 -7.16,1.79 -9.12,2.81 -3,1.54 -7.07,4.26 -7.07,5.2 0,0.17 0.09,0.26 0.68,0.26 3,0 14.32,-2.56 17.81,-4.26 2.3,-1.11 3.75,-4.69 5,-7.16 -1.21,1.14 -4.19,2.41 -7.26,3.18 z m 4.26,-46.18 c 0.34,0 1.79,0.68 4.69,2.56 a 31,31 0 0 1 5.71,4.68 32.5,32.5 0 0 1 0.85,-5.11 c 0,0 -0.68,-1.19 -4.09,-3 -2.73,-1.45 -7.84,-2.73 -12,-4.35 -4.16,-1.62 -8.34,-4.51 -9.54,-4.51 -0.42,0 -0.51,0.34 -0.51,0.93 0,4.78 4.52,10.06 14.74,14.91 5.54,2.65 7.67,3.84 10.48,6 a 10.35,10.35 0 0 1 -0.17,-1.79 14.88,14.88 0 0 1 0.09,-1.53 c -0.69,-1.28 -10.31,-8.7 -10.31,-8.78 z m -3.49,63.05 c 7.41,0 23.51,-9.63 29.91,-14.48 6.4,-4.85 10.65,-10.65 10.65,-15.43 a 6.7,6.7 0 0 0 -6,-7 c -3.07,0 -5,3.41 -7,7 -4.86,8.53 -8.52,12 -9.88,12 -0.09,0 -0.17,0 -0.17,-0.09 0,-0.34 2,-1.36 5.62,-7.75 4,-6.9 6.3,-11.25 6.3,-11.08 0,-0.17 -0.17,-0.34 -0.51,-0.34 -0.17,0 -0.34,0.09 -0.51,0.09 -1.28,0.25 -9.8,5.88 -13.63,9.54 a 50.17,50.17 0 0 0 -8.35,11.5 67.64,67.64 0 0 1 -4.35,7.59 c -2.13,3.15 -5.28,6.13 -5.28,7.32 0,0.99 1.79,1.16 3.24,1.16 z m 27.52,-39.7 c -1.28,-1.62 -4.69,-6.05 -4.69,-15 0,-13.21 7.42,-20.71 7.42,-31.7 0,-0.76 0,-1.27 -0.26,-1.27 -0.26,0 -0.94,1.7 -7.92,14.05 -3.67,6.48 -6.31,12.27 -6.31,19.86 0,6.9 2.47,8.94 3.84,9.71 a 24.63,24.63 0 0 1 -1.62,-8.69 17.36,17.36 0 0 1 1.1,-6.65 c 0.17,-0.42 0.34,-0.68 0.52,-0.68 0.18,0 0.17,0.09 0.17,0.26 a 30.7,30.7 0 0 0 -0.52,5.11 25.61,25.61 0 0 0 1.79,9.46 c 2,5 4.86,5.54 6.14,5.54 z m 3.58,0.17 c 0,-0.43 -1.45,-6 -1.45,-10.82 0,-4.35 1,-8.1 1.36,-8.1 0.17,0 0.26,0.17 0.26,0.43 a 73.81,73.81 0 0 0 -0.51,7.84 c 0,3.4 1.11,12.18 3.58,12.18 1,0 1.27,-1.28 1.27,-2.73 0,-2.3 -0.51,-5.79 -0.51,-11.24 0,-4.77 0.51,-15.51 0.51,-22 0,-8.69 -1.36,-10.9 -2.38,-10.9 -1.02,0 -1.71,3.15 -4,10.56 -1.19,3.84 -4.51,11.33 -4.51,19.34 0,11.08 4.51,16.11 5.79,16.11 0.54,0.04 0.63,-0.22 0.63,-0.64 z m 4.17,-47.8 c 0,-1.54 -0.59,-3.07 -1.19,-3.07 -0.6,0 -1.11,1.7 -1.11,3 0,0.94 0.26,2.05 1.2,2.05 0.94,0 1.14,-1.08 1.14,-1.95 z M 173,118 a 25.68,25.68 0 0 1 -7.58,7.75 c 0.42,2.22 7.24,19.26 13.38,19.26 2.47,0 2.89,-3.75 2.89,-6.9 0,-6.22 0.26,-11.93 0.26,-14.32 0,-2.64 -3,-4.85 -3.92,-6 a 23.229,23.229 0 0 1 -2.9,-3.83 3.18,3.18 0 0 0 -0.42,2 c 0,4.17 1.44,10.82 1.44,12.44 0,0.25 0,0.43 -0.08,0.43 -0.51,0 -1.45,-3.5 -2,-5.71 z m -2.3,-67.4 c 0.26,0 0.51,1.45 0.94,1.45 0.43,0 0.51,-0.94 0.51,-1.87 0,-0.93 -0.26,-2.22 -0.6,-2.22 -0.34,0 -0.25,1.79 -0.51,1.79 -0.26,0 -0.25,-0.26 -0.25,-0.6 0,-0.34 0.08,-0.93 0.08,-1.19 0,-0.43 -0.17,-0.85 -0.6,-0.85 -1,0 -1.44,3.83 -1.44,4.34 0,0.51 0.08,0.86 0.59,0.86 0.76,-0.05 1.02,-1.76 1.27,-1.76 z m 5.2,37.92 a 44.83,44.83 0 0 0 -1.45,-11.67 c 0,-0.09 0,-0.17 0.17,-0.17 0.68,0 2.56,3.91 2.56,11.58 0,5.8 -1.37,7.93 -1.37,8.61 0,0.34 0.17,0.6 1.62,0.6 3.41,0 4.77,-6.91 4.77,-10.57 a 33.79,33.79 0 0 0 -1,-9.12 c -1.79,-7.24 -4.77,-12.44 -7.41,-18.66 -1.62,-3.75 -1.71,-5.62 -3.07,-5.62 -1.36,0 -1.62,5.11 -1.62,9 0,3.89 0.34,13.63 0.34,19.09 0,5.46 -0.25,13 -0.25,14.74 0,1.74 0.34,2.89 1.87,2.89 3.47,-0.02 4.83,-6.83 4.83,-10.75 z m 7.58,31.18 c 10.74,11.68 24.88,16.11 29.74,16.11 2.38,0 3.24,-0.94 3.24,-1.88 0,-2.3 -4.52,-5 -13.21,-21.64 -7.24,-13.89 -13.72,-14.65 -16.7,-14.65 a 6.92,6.92 0 0 0 -4.86,1.7 c 3.41,1.36 9.72,12.1 10.82,13.46 0.94,1.19 1.37,1.71 1.37,2 0,0.09 -0.09,0.09 -0.17,0.09 -0.26,0 -0.86,-0.6 -1.62,-1.54 -0.94,-1.1 -2.13,-2.81 -6,-7.75 -3.87,-4.94 -6.56,-6.39 -9.54,-6.39 -1.79,0 -3.92,1.19 -3.92,2.73 3.26,4.68 3.51,9.7 10.84,17.71 z m 4.94,-28.37 c 0.51,-0.08 2.3,-1.19 2.3,-8.61 0,-8.52 -8.94,-20.19 -12.26,-27.43 -2.9,-6.31 -2.82,-7.67 -3.41,-7.67 -0.43,0 -1,1.11 -1,3.58 0,6.56 5.2,15.08 7.33,21 a 37.43,37.43 0 0 1 2.64,14 c 0,6.81 -2.38,10.31 -2.38,10.31 a 0.283,0.283 0 0 0 0.17,0.08 c 1.36,0 5.36,-3.15 5.36,-10 0,-2.05 -0.34,-3.58 -0.34,-4.26 0,-0.26 0.09,-0.43 0.17,-0.43 0.9,-0.16 1.41,8.61 1.41,9.38 z m 21.82,-4.52 c 2.13,0 4.09,0.09 4.09,0.35 0,0.42 -4.35,0.17 -11.42,1.36 a 30.42,30.42 0 0 0 -13,5.2 c 0,0 6.22,-0.43 10.65,-0.43 a 85.221,85.221 0 0 1 15.16,1.19 c 2,0 10.31,-1.53 17.47,-5.54 11.25,-6.3 14.06,-10 14.06,-12 0,-0.68 -0.51,-0.94 -1.53,-0.94 -0.86,0 -4.6,0.86 -12.7,2.9 -7.75,2 -15.34,1.79 -22.66,2.13 -15,0.68 -18.92,7 -18.92,9.46 a 53.47,53.47 0 0 1 18.79,-3.73 z M 207.41,76 c 5.63,-4.52 5.71,-6.9 5.71,-7.24 a 0.63,0.63 0 0 0 -0.68,-0.69 c -1.28,0 -4.43,1.71 -7.07,2.22 -4.35,0.85 -12.1,0.94 -14.57,4.17 a 26.409,26.409 0 0 1 1.62,4.54 c 1.11,-0.94 8.09,-4.09 9.54,-4.09 0.17,0 0.26,0 0.26,0.09 0,0.25 -1.37,0.76 -4.09,2 a 23.211,23.211 0 0 0 -5.37,3.41 13.84,13.84 0 0 1 0.17,2.73 c 0,0.17 0,0.51 -0.09,1.53 C 195.83,83 202.47,80 207.41,76 Z m -8,27.18 c 3,3.32 5.12,7.41 6.14,8.18 1.28,1 14.66,3.32 28.54,3.32 5.8,0 8.44,-0.59 8.44,-2.47 0,-2.13 -7,-4.09 -15.85,-8.69 -4.6,-2.39 -12.44,-9 -23,-9 -8.61,0 -11.17,0.94 -11.34,1 1.62,0.26 13.29,3.75 13.29,5.11 0,0 0,0.09 -0.08,0.09 -0.43,0 -2.56,-0.94 -5.88,-2.13 a 23.57,23.57 0 0 0 -6.13,-1.45 1.34,1.34 0 0 0 -0.6,0.08 33.671,33.671 0 0 1 6.46,5.99 z M 223,123.57 c 2.89,0 4.85,-0.42 4.85,-1 0,-1.19 -5.19,-4.17 -8.94,-5.2 -3.75,-1.03 -6.73,-1.1 -9.8,-1.79 1.63,2.88 1.54,7.99 13.89,7.99 z m 6.73,-20.87 c 3.92,0 14.91,-2.47 18.91,-4.43 3.84,-1.88 5.29,-2.9 5.29,-3.84 0,-0.59 -0.69,-0.59 -1.45,-0.59 -0.94,0 -4.26,0.25 -6.9,0.25 a 40.41,40.41 0 0 1 -10.82,-1.28 c -4.18,2.3 -12,3.92 -15.68,4.52 3.76,2.39 7.33,5.37 10.66,5.37 z"
         transform="translate(-58.73,-17.93)"
         fill="#ffffff"
         id="path826"
         style="fill:#005480;fill-opacity:1" />
      <g
         transform="translate(6.188,2.62)"
         id="g910">
        <path
           d="m 216.44,110.146 v -1.206 h 240.815 v 1.206 z"
           transform="translate(0,-12.807)"
           fill="#ffffff"
           id="path828"
           style="fill:#005480;fill-opacity:1" />
        <path
           d="m 278.31,65.779 c 0.85,-0.476 1.223,-0.917 1.223,-2.88 V 45.238 c 0,-1.962 -0.408,-2.4 -1.223,-2.88 v -0.17 h 2.481 v 23.736 h -2.481 z m 3.729,-23.566 h 3.492 c 4.477,0 6.8,2.073 6.8,5.5 a 5.2,5.2 0 0 1 -4.511,5.454 v 0.1 c 3.4,0.578 5.191,2.786 5.191,5.768 0,3.593 -2.039,5.666 -6.244,6.032 v 0.17 c 4.477,-0.17 7.7,-1.826 7.7,-6.3 a 5.445,5.445 0 0 0 -4.477,-5.734 v -0.161 a 5.318,5.318 0 0 0 3.8,-5.488 5.471,5.471 0 0 0 -3.661,-5.428 l 0.068,-0.17 a 5.293,5.293 0 0 1 4.953,5.6 c 0,3.4 -1.8,4.817 -3.152,5.42 v 0.068 c 1.86,0.578 3.831,2.379 3.831,5.836 0,6.066 -4.919,7.017 -9.022,7.017 h -4.757 z m 3.016,10.407 c 2.786,0 5.947,-1.011 5.947,-4.842 0,-3.3 -2.268,-4.341 -5.395,-4.341 h -2.3 v 9.158 z m 0,11.74 c 3.7,-0.025 6.584,-1.13 6.584,-5.378 0,-3.526 -2.549,-5.1 -6.482,-5.1 h -1.894 v 10.453 z"
           transform="translate(-59.203,-17.959)"
           fill="#ffffff"
           id="path830"
           style="fill:#005480;fill-opacity:1" />
        <path
           d="m 304.93,65.821 c 0.85,-0.476 1.223,-0.917 1.223,-2.88 V 45.28 c 0,-1.962 -0.408,-2.4 -1.223,-2.88 v -0.17 h 2.481 v 23.736 h -2.481 z m 3.729,-23.566 h 10.194 v 2.752 h -0.17 c -0.476,-0.977 -0.917,-1.555 -4.1,-1.555 h -4.664 v 9.421 h 3.933 c 2.608,0 3.152,-0.331 3.56,-1.011 h 0.17 v 3.492 h -0.17 c -0.442,-0.782 -0.85,-1.223 -3.661,-1.223 h -3.831 v 10.552 h 4.58 c 3.967,0 4.409,-0.646 4.885,-1.631 h 0.17 v 2.914 h -10.896 z"
           transform="translate(-63.208,-18.001)"
           fill="#ffffff"
           id="path832"
           style="fill:#005480;fill-opacity:1" />
        <path
           d="m 327.72,65.79 c 0.85,-0.476 1.223,-0.917 1.223,-2.88 V 45.248 c 0,-1.962 -0.408,-2.4 -1.223,-2.88 V 42.2 h 2.472 v 23.734 h -2.472 z m 3.729,-23.566 h 2.71 c 5.021,0 7.433,2.549 7.433,6.3 0,3.024 -1.325,5.87 -6.278,6.516 v 0.1 c 0.238,0.34 0.51,0.85 0.748,1.257 2,3.56 5.191,8.308 9.124,9.081 l 0.068,-0.136 c -3.729,-1.826 -6.754,-7.085 -8.274,-9.931 3.865,-1.019 6.066,-2.752 6.066,-6.89 A 6.27,6.27 0 0 0 338.8,42.19 l 0.068,-0.17 a 6.312,6.312 0 0 1 5.564,6.609 c 0,4.375 -2.549,6.312 -5.7,7.229 2.549,4.876 5.666,8.444 8.988,10 l -0.068,0.272 a 4.57,4.57 0 0 1 -1.359,0.17 c -5.59,0 -8.844,-5.1 -12.174,-10.713 h -1.385 v 7.323 c 0,1.962 0.306,2.4 1.113,2.88 v 0.17 h -2.37 z m 2.209,11.936 c 4.035,0 6.575,-1.7 6.575,-5.6 0,-4.035 -2.88,-5.1 -5.734,-5.1 h -1.792 v 10.67 z"
           transform="translate(-66.638,-17.969)"
           fill="#ffffff"
           id="path834"
           style="fill:#005480;fill-opacity:1" />
        <path
           d="m 362.032,66.2 c -3.254,-0.408 -8.852,-3.254 -8.852,-11.893 0,-10.194 7.391,-12.548 13.592,-12.548 3.288,0 5.428,0.51 6.473,0.51 a 0.909,0.909 0 0 0 0.578,-0.136 h 0.2 V 46 h -0.2 c -0.977,-1.4 -2.956,-2.336 -6.5,-2.336 -4.681,0 -9.973,2.812 -9.973,10.475 0,8.24 5.462,10.848 10.789,10.848 a 8.062,8.062 0 0 0 2.336,-0.272 v -7.264 c 0,-1.962 -0.51,-2.4 -1.325,-2.88 V 54.4 h 2.55 v 11.35 a 15.215,15.215 0 0 1 -3.831,0.476 c -7.9,0 -11.893,-4.919 -11.893,-11.893 0,-6.066 3.118,-10.916 10.339,-11.46 V 42.7 c -7.7,0 -11.8,4.715 -11.8,11.63 0,5.7 2.71,10.245 7.561,11.732 z m 10.95,-11.8 h 2.481 v 0.17 c -0.849,0.476 -1.223,0.917 -1.223,2.88 v 7.731 l -1.257,0.34 z"
           transform="translate(-70.469,-17.93)"
           fill="#ffffff"
           id="path836"
           style="fill:#005480;fill-opacity:1" />
        <path
           d="m 384.75,65.821 c 0.85,-0.476 1.223,-0.917 1.223,-2.88 V 45.28 c 0,-1.962 -0.408,-2.4 -1.223,-2.88 v -0.17 h 2.472 v 23.736 h -2.472 z m 3.729,-23.566 h 2.481 v 0.17 c -0.85,0.476 -1.223,0.917 -1.223,2.88 v 17.611 c 0,1.962 0.408,2.4 1.223,2.88 v 0.17 h -2.481 z"
           transform="translate(-75.219,-18.001)"
           fill="#ffffff"
           id="path838"
           style="fill:#005480;fill-opacity:1" />
        <path
           d="m 396,65.821 c 0.612,-0.374 1.189,-0.985 1.971,-3.084 l 6.915,-18.69 a 3.848,3.848 0 0 0 -1.045,-1.6 v -0.17 h 1.826 l 8.5,23.736 h -2.71 v -0.2 c 0.705,-0.476 0.977,-0.85 0.272,-2.812 l -2,-5.6 h -8.342 l -2.132,5.947 c -0.578,1.589 -0.17,2.166 0.476,2.472 V 66 H 396 Z m 13.329,-9.685 -3.7,-10.381 -3.759,10.382 z M 407.044,42.23 h 1.385 l 7.2,20.04 c 0.909,2.549 1.521,3.118 2.268,3.526 v 0.17 h -2.3 z"
           transform="translate(-76.912,-18.001)"
           fill="#ffffff"
           id="path840"
           style="fill:#005480;fill-opacity:1" />
        <path
           d="m 425.26,65.821 c 0.748,-0.442 1.215,-0.85 1.215,-2.438 v -17.7 c 0,-2.234 -0.467,-2.812 -1.215,-3.288 v -0.17 h 1.555 l 19.369,22.419 v 1.962 l -18.35,-21.179 v 17.931 c 0,1.589 0.374,2 1.121,2.438 v 0.17 h -3.7 z m 3.177,-23.591 h 2.549 v 0.17 a 0.272,0.272 0 0 0 -0.136,0.272 c 0,0.51 0.85,1.461 1.7,2.37 l 12.276,14.315 V 44.838 c 0,-1.589 -0.476,-2 -1.223,-2.438 v -0.17 h 3.8 v 0.17 c -0.739,0.442 -1.215,0.85 -1.215,2.438 v 17.976 z"
           transform="translate(-81.315,-18.001)"
           fill="#ffffff"
           id="path842"
           style="fill:#005480;fill-opacity:1" />
        <path
           d="m 457,60.843 h 0.2 a 6.151,6.151 0 0 0 6.134,4.171 c 2.846,0 4.545,-1.453 4.545,-4.171 0,-5.692 -10.517,-6.1 -10.517,-13.117 0,-3.33 2.073,-5.947 7.646,-5.947 2.268,0 4.035,0.51 4.876,0.51 a 0.663,0.663 0 0 0 0.476,-0.136 h 0.2 v 3.7 h -0.2 a 5.411,5.411 0 0 0 -4.868,-2.4 c -3.016,0 -4.3,1.793 -4.3,3.7 0,5.386 10.509,5.59 10.509,13.159 a 5.642,5.642 0 0 1 -4.137,5.828 l -0.1,-0.17 c 2.039,-0.917 2.948,-2.88 2.948,-5.454 0,-7.162 -10.543,-7.2 -10.543,-13.227 a 4.477,4.477 0 0 1 3.763,-4.469 v -0.14 c -3.526,0.306 -4.987,2.549 -4.987,4.817 0,6.541 10.551,6.745 10.551,13.185 0,2.685 -1.359,5.564 -6.006,5.564 -3.526,0 -4.851,-1.087 -5.6,-1.087 a 0.62,0.62 0 0 0 -0.4,0.136 H 457 Z"
           transform="translate(-86.091,-17.933)"
           fill="#ffffff"
           id="path844"
           style="fill:#005480;fill-opacity:1" />
        <path
           d="m 479.77,65.821 c 0.85,-0.476 1.223,-0.917 1.223,-2.88 V 45.28 c 0,-1.962 -0.408,-2.4 -1.223,-2.88 v -0.17 h 2.481 v 23.736 h -2.481 z m 3.738,-23.566 h 2.472 v 0.17 c -0.849,0.476 -1.223,0.917 -1.223,2.88 v 8.206 l 8.41,-8.648 c 0.985,-1.011 1.291,-1.623 1.291,-2 a 0.6,0.6 0 0 0 -0.2,-0.442 v -0.17 h 4.477 v 0.17 a 11.393,11.393 0 0 0 -3.8,2.676 l -6.89,6.958 9.124,10.848 a 13.831,13.831 0 0 0 3.118,2.914 v 0.17 h -2.268 L 487.1,52.943 l -0.85,0.917 10.194,12.106 h -2.8 v -0.144 a 0.5,0.5 0 0 0 0,-0.238 c 0,-0.34 -0.272,-1.079 -1.563,-2.642 l -6.8,-8.172 -0.578,0.578 v 7.595 c 0,1.962 0.408,2.4 1.223,2.88 v 0.17 h -2.472 z"
           transform="translate(-89.517,-18.001)"
           fill="#ffffff"
           id="path846"
           style="fill:#005480;fill-opacity:1" />
        <path
           d="m 505.36,65.821 c 0.6,-0.374 1.181,-0.985 1.962,-3.084 l 6.915,-18.69 a 3.687,3.687 0 0 0 -1.045,-1.6 v -0.17 h 1.826 l 8.5,23.736 H 520.8 v -0.2 c 0.714,-0.476 0.985,-0.85 0.272,-2.812 l -2,-5.6 h -8.325 l -2.132,5.947 c -0.578,1.589 -0.17,2.166 0.476,2.472 V 66 h -3.731 z m 13.287,-9.685 -3.7,-10.381 -3.763,10.381 z M 516.378,42.23 h 1.422 l 7.187,20.04 c 0.917,2.549 1.529,3.118 2.268,3.526 v 0.17 h -2.3 z"
           transform="translate(-93.368,-18.001)"
           fill="#ffffff"
           id="path848"
           style="fill:#005480;fill-opacity:1" />
        <path
           d="m 284.846,111.154 c 0.807,-0.476 1.113,-0.917 1.113,-2.888 v -19.48 h -3.7 c -2.846,0 -3.288,0.578 -3.763,1.563 h -0.17 V 87.58 h 8.886 v 23.787 h -2.37 z m 3.627,-23.574 h 8.861 v 2.786 h -0.17 c -0.425,-0.985 -0.909,-1.58 -3.763,-1.58 h -3.7 v 19.463 c 0,1.971 0.306,2.413 1.121,2.888 v 0.17 h -2.37 z"
           transform="translate(-59.206,-24.825)"
           fill="#ffffff"
           id="path850"
           style="fill:#005480;fill-opacity:1" />
        <path
           d="m 304.81,111.118 c 0.849,-0.476 1.223,-0.917 1.223,-2.888 V 90.6 c 0,-1.971 -0.408,-2.413 -1.223,-2.888 v -0.17 h 2.481 v 23.787 h -2.481 z m 3.729,-23.574 h 2.719 c 5.012,0 7.425,2.549 7.425,6.312 0,3.016 -1.325,5.862 -6.278,6.507 v 0.1 c 0.238,0.34 0.51,0.85 0.748,1.257 2,3.56 5.191,8.308 9.124,9.09 l 0.068,-0.136 c -3.729,-1.835 -6.754,-7.094 -8.274,-9.939 3.865,-1.019 6.066,-2.744 6.066,-6.881 a 6.3,6.3 0 0 0 -4.248,-6.346 l 0.068,-0.17 a 6.32,6.32 0 0 1 5.564,6.618 c 0,4.375 -2.549,6.3 -5.7,7.221 2.549,4.885 5.666,8.444 8.988,10.007 l -0.068,0.263 a 4.554,4.554 0 0 1 -1.351,0.17 c -5.6,0 -8.852,-5.1 -12.174,-10.713 h -1.393 v 7.323 c 0,1.971 0.306,2.413 1.121,2.888 v 0.17 h -2.379 z m 2.209,11.893 c 4.035,0 6.575,-1.7 6.575,-5.59 0,-4.035 -2.88,-5.1 -5.734,-5.1 H 309.8 v 10.716 z"
           transform="translate(-63.19,-24.789)"
           fill="#ffffff"
           id="path852"
           style="fill:#005480;fill-opacity:1" />
        <path
           d="m 329.437,110.206 c 0.6,-0.374 1.181,-0.985 1.962,-3.092 l 6.915,-18.69 a 3.848,3.848 0 0 0 -1.045,-1.6 v -0.17 h 1.831 l 8.5,23.787 h -2.71 v -0.17 c 0.714,-0.476 0.977,-0.85 0.272,-2.82 l -2,-5.59 h -8.342 l -2.132,5.947 c -0.578,1.6 -0.17,2.175 0.476,2.481 v 0.17 h -3.744 z m 7.595,-28.884 a 2,2 0 1 1 -2.022,1.954 1.937,1.937 0 0 1 2.022,-2 z m 5.692,19.259 -3.7,-10.381 -3.763,10.381 z m -4.613,-17.262 a 1.062,1.062 0 0 0 -1.079,-1.121 1.1215,1.1215 0 1 0 0,2.243 1.062,1.062 0 0 0 1.079,-1.164 z m 2.345,3.4 h 1.351 l 7.2,20.04 c 0.909,2.549 1.521,3.126 2.268,3.534 v 0.17 h -2.3 z M 343,81.365 a 2,2 0 1 1 -2,2 1.937,1.937 0 0 1 2.022,-2.081 z m 1.087,2 A 1.062,1.062 0 0 0 343,82.24 a 1.1215,1.1215 0 1 0 0,2.243 1.062,1.062 0 0 0 1.113,-1.206 z"
           transform="translate(-66.894,-23.876)"
           fill="#ffffff"
           id="path854"
           style="fill:#005480;fill-opacity:1" />
        <path
           d="m 359,111.124 c 0.85,-0.476 1.223,-0.917 1.223,-2.888 V 90.608 c 0,-1.971 -0.408,-2.413 -1.223,-2.888 v -0.17 h 2.472 v 23.787 H 359 Z m 3.729,-23.574 h 3.186 c 8.5,0 12.208,4.511 12.208,11.358 0,6.584 -3.22,10.789 -10.135,11.469 v 0.136 c 7.459,-0.34 11.6,-3.661 11.6,-11.562 0,-6.346 -3.288,-10.109 -7.646,-11.4 l 0.068,-0.17 c 3.288,0.408 8.946,2.651 8.946,11.5 0,10.848 -7.561,12.412 -13.525,12.412 h -4.689 z m 2.336,22.147 c 2.82,0 11.7,-0.136 11.7,-10.721 0,-8.037 -5.59,-10.194 -10.848,-10.194 h -1.928 v 20.924 z"
           transform="translate(-71.345,-24.795)"
           fill="#ffffff"
           id="path856"
           style="fill:#005480;fill-opacity:1" />
        <path
           d="m 397.912,111.551 c -3.254,-0.4 -8.852,-3.254 -8.852,-11.893 0,-10.194 7.391,-12.548 13.592,-12.548 3.288,0 5.42,0.51 6.473,0.51 a 0.909,0.909 0 0 0 0.578,-0.136 h 0.2 v 3.865 h -0.2 c -0.951,-1.419 -2.948,-2.336 -6.473,-2.336 -4.681,0 -9.973,2.812 -9.973,10.475 0,8.24 5.462,10.857 10.78,10.857 a 8.087,8.087 0 0 0 2.345,-0.272 v -7.289 c 0,-1.971 -0.51,-2.413 -1.325,-2.888 V 99.76 h 2.549 v 11.367 a 15.64,15.64 0 0 1 -3.84,0.467 c -7.9,0 -11.893,-4.91 -11.893,-11.893 0,-6.066 3.126,-10.916 10.347,-11.46 v -0.17 c -7.7,0 -11.8,4.715 -11.8,11.63 0,5.7 2.71,10.245 7.561,11.74 z m 10.95,-11.791 h 2.481 v 0.17 c -0.85,0.476 -1.223,0.917 -1.223,2.888 v 7.731 l -1.257,0.34 z"
           transform="translate(-75.868,-24.754)"
           fill="#ffffff"
           id="path858"
           style="fill:#005480;fill-opacity:1" />
        <path
           d="m 417.84,109.989 c 0.6,-0.374 1.181,-0.985 1.962,-3.092 l 6.915,-18.69 a 3.764,3.764 0 0 0 -1.045,-1.6 v -0.17 h 1.828 l 8.5,23.787 h -2.727 v -0.17 c 0.714,-0.476 0.977,-0.85 0.272,-2.82 l -1.971,-5.658 h -8.342 l -2.132,5.947 c -0.578,1.6 -0.17,2.175 0.476,2.481 v 0.17 h -3.736 z m 13.287,-9.625 -3.7,-10.381 -3.763,10.381 z m -2.676,-20.482 a 2.685,2.685 0 1 1 -2.676,2.642 2.549,2.549 0 0 1 2.676,-2.685 z m 1.631,2.642 a 1.631,1.631 0 1 0 -1.631,1.7 1.606,1.606 0 0 0 1.631,-1.7 z m -1.223,3.9 h 1.385 l 7.2,20.04 c 0.918,2.549 1.521,3.126 2.268,3.534 v 0.17 h -2.3 z"
           transform="translate(-80.198,-23.66)"
           fill="#ffffff"
           id="path860"
           style="fill:#005480;fill-opacity:1" />
        <path
           d="m 447.25,111.118 c 0.85,-0.476 1.223,-0.917 1.223,-2.888 V 90.6 c 0,-1.971 -0.408,-2.413 -1.223,-2.888 v -0.17 h 2.472 v 23.787 h -2.472 z m 3.729,-23.574 h 2.71 c 5.021,0 7.433,2.549 7.433,6.312 0,3.016 -1.325,5.862 -6.278,6.507 v 0.1 c 0.238,0.34 0.51,0.85 0.748,1.257 2,3.56 5.191,8.308 9.124,9.09 l 0.068,-0.136 c -3.729,-1.835 -6.754,-7.094 -8.274,-9.939 3.865,-1.019 6.066,-2.744 6.066,-6.881 a 6.3,6.3 0 0 0 -4.248,-6.346 l 0.068,-0.17 a 6.32,6.32 0 0 1 5.564,6.618 c 0,4.375 -2.549,6.3 -5.7,7.221 2.549,4.885 5.666,8.444 8.988,10.007 l -0.068,0.263 a 4.571,4.571 0 0 1 -1.359,0.17 c -5.59,0 -8.844,-5.1 -12.174,-10.713 h -1.385 v 7.323 c 0,1.971 0.306,2.413 1.113,2.888 v 0.17 H 451 Z m 2.2,11.893 c 4.035,0 6.584,-1.7 6.584,-5.59 0,-4.035 -2.88,-5.1 -5.734,-5.1 h -1.792 v 10.716 z"
           transform="translate(-84.624,-24.789)"
           fill="#ffffff"
           id="path862"
           style="fill:#005480;fill-opacity:1" />
        <path
           d="m 473.91,111.124 c 0.85,-0.476 1.223,-0.917 1.223,-2.888 V 90.608 c 0,-1.971 -0.408,-2.413 -1.223,-2.888 v -0.17 h 2.472 v 23.787 h -2.472 z m 3.729,-23.574 h 3.186 c 8.5,0 12.208,4.511 12.208,11.358 0,6.584 -3.22,10.789 -10.135,11.469 v 0.136 c 7.459,-0.34 11.6,-3.661 11.6,-11.562 0,-6.346 -3.288,-10.109 -7.646,-11.4 l 0.068,-0.17 c 3.288,0.408 8.946,2.651 8.946,11.5 0,10.848 -7.561,12.412 -13.525,12.412 h -4.7 z m 2.336,22.147 c 2.82,0 11.707,-0.136 11.707,-10.721 0,-8.037 -5.6,-10.194 -10.857,-10.194 H 478.9 v 20.924 z"
           transform="translate(-88.635,-24.795)"
           fill="#ffffff"
           id="path864"
           style="fill:#005480;fill-opacity:1" />
        <path
           d="m 504.92,111.154 c 0.85,-0.476 1.215,-0.917 1.215,-2.888 V 90.638 c 0,-1.971 -0.4,-2.413 -1.215,-2.888 v -0.17 h 2.472 v 23.787 h -2.472 z m 3.729,-23.574 h 10.194 v 2.786 h -0.161 c -0.51,-0.985 -0.952,-1.58 -4.129,-1.58 h -4.647 v 9.43 h 3.933 c 2.608,0 3.152,-0.34 3.56,-1.019 h 0.17 v 3.483 h -0.17 c -0.442,-0.782 -0.85,-1.223 -3.661,-1.223 h -3.831 v 10.568 h 4.579 c 3.967,0 4.4,-0.646 4.876,-1.631 h 0.17 v 2.922 h -10.883 z"
           transform="translate(-93.302,-24.825)"
           fill="#ffffff"
           id="path866"
           style="fill:#005480;fill-opacity:1" />
        <path
           d="m 527.35,111.154 c 0.748,-0.442 1.215,-0.85 1.215,-2.447 V 91.046 c 0,-2.243 -0.467,-2.82 -1.215,-3.3 v -0.17 h 1.55 l 19.386,22.444 v 1.962 L 529.936,90.82 v 17.908 c 0,1.6 0.374,2 1.121,2.447 v 0.17 h -3.7 z m 3.186,-23.574 h 2.549 v 0.17 a 0.272,0.272 0 0 0 -0.136,0.272 c 0,0.51 0.849,1.461 1.7,2.379 l 12.276,14.306 V 90.2 c 0,-1.6 -0.476,-2 -1.223,-2.447 v -0.17 h 3.8 v 0.17 c -0.748,0.442 -1.215,0.85 -1.215,2.447 v 17.967 z"
           transform="translate(-96.677,-24.825)"
           fill="#ffffff"
           id="path868"
           style="fill:#005480;fill-opacity:1" />
        <path
           d="m 278.31,152.8 c 0.433,-0.255 0.561,-0.493 0.561,-1.334 v -11.158 c 0,-1.24 -0.042,-1.521 -0.561,-1.826 v -0.1 h 4.79 c 3.118,0 4.647,1.308 4.647,3.475 a 3.4,3.4 0 0 1 -2.549,3.4 v 0.059 a 3.339,3.339 0 0 1 3.041,3.449 c 0,2.081 -1.334,4.248 -5.327,4.248 -1.359,0 -2.549,-0.042 -4,-0.059 h -0.561 z m 2.549,-8.011 h 1.308 c 2.387,0 3.543,-0.9 3.543,-2.668 0,-1.478 -0.705,-2.549 -2.922,-2.549 a 19.06,19.06 0 0 0 -1.928,0.085 z m 0,6.8 a 8.74,8.74 0 0 0 1.843,0.153 c 2.37,0 3.4,-1.113 3.4,-3.033 0,-1.92 -1.555,-2.642 -3.916,-2.642 h -1.351 z"
           transform="translate(-59.203,-32.469)"
           fill="#ffffff"
           id="path870"
           style="fill:#005480;fill-opacity:1" />
        <path
           d="m 300.344,153.248 c -0.382,-0.144 -1.266,0.5 -3.092,0.5 -3.245,0 -5.182,-1.7 -5.182,-5.632 0,-3.033 1.7,-5.437 4.817,-5.437 3.117,0 4.146,2.277 4.146,4.638 a 9.869,9.869 0 0 1 -0.043,1.053 h -6.856 c 0.043,2.668 0.968,4.018 3.356,4.018 a 3.95,3.95 0 0 0 2.837,-1.053 h 0.17 v 1.911 z m -1.181,-6.049 c 0,-1.886 -0.646,-3.245 -2.362,-3.245 -1.461,0 -2.4,0.909 -2.625,3.245 z"
           transform="translate(-61.273,-33.116)"
           fill="#ffffff"
           id="path872"
           style="fill:#005480;fill-opacity:1" />
        <path
           d="m 304.922,153.439 c 0.51,-0.3 0.561,-0.578 0.561,-1.826 v -6.8 c 0,-1.249 -0.051,-1.521 -0.561,-1.826 v -0.1 h 2.387 c 0,0 -0.178,2.319 -0.221,2.319 v 0 c 0.544,-1.5 1.487,-2.668 3.526,-2.549 v 1.843 c -1.979,-0.323 -3.262,0.773 -3.262,3.933 v 3.186 c 0,1.266 0.085,1.521 0.552,1.8 v 0.11 h -3.024 z"
           transform="translate(-63.201,-33.111)"
           fill="#ffffff"
           id="path874"
           style="fill:#005480;fill-opacity:1" />
        <path
           d="m 318.534,152.025 c 2.727,0.11 3.891,1.317 3.891,3.118 0,2.625 -2.192,3.763 -5.055,3.763 -2.863,0 -4.57,-1.121 -4.57,-3.143 a 2.735,2.735 0 0 1 1.869,-2.617 1.81,1.81 0 0 1 -1.189,-1.631 2.039,2.039 0 0 1 1.419,-1.826 3.509,3.509 0 0 1 -1.759,-3.228 3.774,3.774 0 0 1 4.129,-3.78 6.024,6.024 0 0 1 1.589,0.2 h 3.458 v 1.351 l -2.064,-0.2 v 0.068 a 2.651,2.651 0 0 1 1.181,2.362 c 0,2.175 -1.376,3.78 -4.044,3.78 a 5.462,5.462 0 0 1 -1.376,-0.144 1.028,1.028 0 0 0 -0.773,0.943 c 0,0.62 0.586,0.85 1.937,0.926 z m -2,1.5 a 3.927,3.927 0 0 1 -0.85,-0.059 2.158,2.158 0 0 0 -1.121,1.886 c 0,1.376 1.1,2.175 2.922,2.175 1.822,0 3.092,-0.714 3.092,-2.175 0,-1.181 -0.646,-1.7 -2.447,-1.759 z m 3.05,-7.068 a 2.246,2.246 0 0 0 -2.319,-2.549 c -1.47,0 -2.277,0.968 -2.277,2.549 0,1.581 0.85,2.549 2.277,2.549 a 2.259,2.259 0 0 0 2.323,-2.546 z"
           transform="translate(-64.393,-33.116)"
           fill="#ffffff"
           id="path876"
           style="fill:#005480;fill-opacity:1" />
        <path
           d="m 326.28,152.655 c 0.518,-0.3 0.561,-0.578 0.561,-1.826 v -6.8 c 0,-1.249 -0.042,-1.521 -0.561,-1.826 v -0.1 h 2.472 v 8.767 c 0,1.266 0.085,1.521 0.561,1.8 v 0.11 h -3.033 z m 1.5,-15.215 a 1.2745,1.2745 0 0 1 0,2.549 1.257,1.257 0 0 1 -1.291,-1.249 1.283,1.283 0 0 1 1.291,-1.3 z"
           transform="translate(-66.421,-32.327)"
           fill="#ffffff"
           id="path878"
           style="fill:#005480;fill-opacity:1" />
        <path
           d="m 332.961,144.838 c 0,-1.249 -0.042,-1.521 -0.561,-1.826 v -0.1 h 2.472 v 6.873 c 0,1.657 0.391,2.6 1.911,2.6 1.92,0 2.948,-2 2.948,-3.848 v -3.7 c 0,-1.249 0,-1.521 -0.561,-1.826 v -0.1 h 2.472 v 8.742 c 0,1.249 0.042,1.529 0.561,1.826 v 0.11 h -2.387 l 0.153,-2.039 h -0.042 a 3.764,3.764 0 0 1 -3.763,2.234 c -2.447,0 -3.2,-1.529 -3.2,-3.4 z"
           transform="translate(-67.342,-33.151)"
           fill="#ffffff"
           id="path880"
           style="fill:#005480;fill-opacity:1" />
        <path
           d="m 346.573,151.34 h 0.17 a 3.215,3.215 0 0 0 2.795,1.121 c 1.291,0 2.192,-0.476 2.192,-1.614 0,-2.362 -5.31,-1.436 -5.31,-5.1 0,-1.852 1.419,-3.05 4.044,-3.05 1.283,0 2.013,0.34 2.234,0.127 h 0.161 v 2.081 h -0.153 a 2.931,2.931 0 0 0 -2.4,-0.943 c -1.376,0 -2.047,0.646 -2.047,1.529 0,2.464 5.31,1.461 5.31,5.174 0,2.022 -1.546,3.1 -4.078,3.1 -1.572,0 -2.5,-0.391 -2.752,-0.2 h -0.127 z"
           transform="translate(-69.452,-33.119)"
           fill="#ffffff"
           id="path882"
           style="fill:#005480;fill-opacity:1" />
        <path
           d="m 363.7,152.8 c 0.425,-0.255 0.561,-0.493 0.561,-1.334 v -11.158 c 0,-1.24 -0.042,-1.521 -0.561,-1.826 v -0.1 h 4.791 c 3.118,0 4.638,1.308 4.638,3.475 a 3.347,3.347 0 0 1 -2.549,3.4 v 0.059 a 3.339,3.339 0 0 1 2.99,3.509 c 0,2.081 -1.334,4.248 -5.335,4.248 -1.351,0 -2.549,-0.042 -3.993,-0.059 h -0.561 z m 2.549,-8.011 h 1.317 c 2.387,0 3.543,-0.9 3.543,-2.668 0,-1.478 -0.705,-2.549 -2.922,-2.549 a 19.238,19.238 0 0 0 -1.937,0.085 z m 0,6.8 a 8.877,8.877 0 0 0 1.852,0.153 c 2.362,0 3.4,-1.113 3.4,-3.033 0,-1.92 -1.546,-2.642 -3.908,-2.642 h -1.359 z"
           transform="translate(-72.049,-32.469)"
           fill="#ffffff"
           id="path884"
           style="fill:#005480;fill-opacity:1" />
        <path
           d="m 377.41,148.117 c 0,-3.143 1.869,-5.437 4.987,-5.437 3.118,0 5.029,2.319 5.029,5.437 0,3.3 -1.894,5.632 -5.029,5.632 -3.135,0 -4.987,-2.497 -4.987,-5.632 z m 7.952,0 c 0,-2.549 -1.138,-4.044 -2.965,-4.044 -1.827,0 -2.922,1.5 -2.922,4.044 0,2.544 1.07,4.248 2.922,4.248 1.852,0 2.965,-1.716 2.965,-4.248 z"
           transform="translate(-74.115,-33.116)"
           fill="#ffffff"
           id="path886"
           style="fill:#005480;fill-opacity:1" />
        <path
           d="m 392.274,143.491 h -2.064 v -1.155 h 2.064 v -2.99 l 1.911,-0.255 v 3.245 h 2.99 v 1.155 h -2.99 v 6.473 c 0,1.325 0.348,1.886 1.4,1.886 a 1.954,1.954 0 0 0 1.461,-0.578 h 0.144 v 1.614 a 14.912,14.912 0 0 1 -2.149,0.3 c -2.124,0 -2.769,-0.9 -2.769,-3.313 z"
           transform="translate(-76.041,-32.576)"
           fill="#ffffff"
           id="path888"
           style="fill:#005480;fill-opacity:1" />
        <path
           d="m 406.823,151.638 h -0.042 a 3.611,3.611 0 0 1 -3.568,2.107 2.752,2.752 0 0 1 -3.024,-2.948 c 0,-2.447 2.277,-3.823 6.422,-3.823 v -0.561 c 0,-1.7 -0.518,-2.387 -2.4,-2.387 a 4.1,4.1 0 0 0 -2.99,1.266 h -0.2 v -2.149 h 0.17 c 0.586,0.11 1.444,-0.493 3.4,-0.493 3.024,0 3.95,1.444 3.95,3.874 v 4.384 c 0,0.943 0,2.387 0.561,2.549 v 0.11 h -2.3 z m -0.212,-3.551 c -3.568,0 -4.511,1.334 -4.511,2.642 a 1.529,1.529 0 0 0 1.7,1.64 2.905,2.905 0 0 0 2.812,-2.965 z"
           transform="translate(-77.541,-33.111)"
           fill="#ffffff"
           id="path890"
           style="fill:#005480;fill-opacity:1" />
        <path
           d="m 413.13,153.444 c 0.518,-0.3 0.561,-0.578 0.561,-1.826 v -6.8 c 0,-1.249 -0.042,-1.521 -0.561,-1.826 v -0.1 h 2.345 l -0.1,2.039 h 0.042 a 3.78,3.78 0 0 1 3.78,-2.234 c 2.447,0 3.22,1.521 3.22,3.4 v 5.522 c 0,1.249 0.042,1.529 0.561,1.826 v 0.11 h -3.033 v -0.11 c 0.476,-0.28 0.561,-0.578 0.561,-1.8 v -4.97 c 0,-1.648 -0.425,-2.549 -1.843,-2.549 -2.022,0 -3.058,1.759 -3.058,4.018 v 3.5 c 0,1.249 0,1.529 0.561,1.826 v 0.11 h -3.036 z"
           transform="translate(-79.49,-33.116)"
           fill="#ffffff"
           id="path892"
           style="fill:#005480;fill-opacity:1" />
        <path
           d="m 427.2,152.655 c 0.518,-0.3 0.561,-0.578 0.561,-1.826 v -6.8 c 0,-1.249 -0.042,-1.521 -0.561,-1.826 v -0.1 h 2.472 v 8.767 c 0,1.266 0.085,1.521 0.561,1.8 v 0.11 H 427.2 Z m 1.529,-15.215 a 1.2745,1.2745 0 1 1 0,2.549 1.257,1.257 0 0 1 -1.291,-1.249 1.283,1.283 0 0 1 1.291,-1.3 z"
           transform="translate(-81.607,-32.327)"
           fill="#ffffff"
           id="path894"
           style="fill:#005480;fill-opacity:1" />
        <path
           d="m 440.756,153.359 a 20.151,20.151 0 0 1 -2.642,0.391 c -2.88,0 -4.944,-1.894 -4.944,-5.632 0,-2.99 1.7,-5.437 5.055,-5.437 a 16.441,16.441 0 0 0 2.549,0.127 h 0.085 v 2.107 h -0.187 a 3.109,3.109 0 0 0 -2.387,-0.85 c -2.345,0 -3.033,1.911 -3.033,4.061 0,2.387 0.8,4.248 3.16,4.248 a 2.9,2.9 0 0 0 2.319,-0.951 h 0.17 v 1.977 z"
           transform="translate(-82.505,-33.116)"
           fill="#ffffff"
           id="path896"
           style="fill:#005480;fill-opacity:1" />
        <path
           d="m 460.549,147.629 c 0,-1.249 -0.042,-1.529 -0.561,-1.826 v -0.136 h 3.075 v 0.11 c -0.459,0.255 -0.561,0.51 -0.561,1.826 v 4.638 a 14.085,14.085 0 0 1 -4.6,0.8 c -4.834,0 -7.348,-2.668 -7.348,-7.442 0,-4.248 2.549,-7.459 7.756,-7.459 1.835,0 3.271,0.518 3.721,0.263 h 0.153 v 2.549 h -0.2 c -0.408,-0.6 -1.6,-1.359 -3.891,-1.359 -4.061,0 -5.437,3.033 -5.437,6.083 0,3.721 1.911,5.947 5.31,5.947 a 6.388,6.388 0 0 0 2.549,-0.425 z"
           transform="translate(-85.12,-32.433)"
           fill="#ffffff"
           id="path898"
           style="fill:#005480;fill-opacity:1" />
        <path
           d="m 474.292,151.638 h -0.042 a 3.61,3.61 0 0 1 -3.568,2.107 2.761,2.761 0 0 1 -3.033,-2.948 c 0,-2.447 2.285,-3.823 6.431,-3.823 v -0.561 c 0,-1.7 -0.518,-2.387 -2.4,-2.387 a 4.1,4.1 0 0 0 -2.99,1.266 h -0.2 v -2.149 h 0.17 c 0.586,0.11 1.444,-0.493 3.4,-0.493 3.024,0 3.95,1.444 3.95,3.874 v 4.384 c 0,0.943 0,2.387 0.561,2.549 v 0.11 h -2.3 z m -0.212,-3.551 c -3.568,0 -4.511,1.334 -4.511,2.642 a 1.521,1.521 0 0 0 1.7,1.64 2.905,2.905 0 0 0 2.82,-2.965 z"
           transform="translate(-87.692,-33.111)"
           fill="#ffffff"
           id="path900"
           style="fill:#005480;fill-opacity:1" />
        <path
           d="m 480.63,153.439 c 0.518,-0.3 0.561,-0.578 0.561,-1.826 v -6.8 c 0,-1.249 -0.042,-1.521 -0.561,-1.826 v -0.1 h 2.387 c 0,0 -0.17,2.319 -0.212,2.319 h 0.042 a 3.274,3.274 0 0 1 3.526,-2.549 v 1.843 c -1.979,-0.323 -3.271,0.773 -3.271,3.933 v 3.186 c 0,1.266 0.085,1.521 0.561,1.8 v 0.11 h -3.033 z"
           transform="translate(-89.647,-33.111)"
           fill="#ffffff"
           id="path902"
           style="fill:#005480;fill-opacity:1" />
        <path
           d="m 496.068,150.745 h -0.051 a 3.619,3.619 0 0 1 -3.4,2.175 c -2.455,0 -4.129,-1.92 -4.129,-5.225 0,-3.551 2,-5.8 5.242,-5.8 a 3.925,3.925 0 0 1 2.09,0.45 v -3.4 c 0,-1.249 -0.042,-1.529 -0.561,-1.826 V 137 h 2.472 v 13.881 c 0,1.164 0.11,1.444 0.561,1.7 v 0.11 h -2.4 z m -0.238,-6.992 a 2.7,2.7 0 0 0 -1.894,-0.578 c -2.039,0 -3.4,1.444 -3.4,4.409 0,2.4 0.85,3.848 2.549,3.848 2.022,0 2.778,-2.217 2.778,-3.7 z"
           transform="translate(-90.829,-32.261)"
           fill="#ffffff"
           id="path904"
           style="fill:#005480;fill-opacity:1" />
        <path
           d="m 510.534,153.248 c -0.391,-0.144 -1.266,0.5 -3.092,0.5 -3.245,0 -5.182,-1.7 -5.182,-5.632 0,-3.033 1.7,-5.437 4.817,-5.437 3.117,0 4.146,2.277 4.146,4.638 a 9.877,9.877 0 0 1 0,1.053 h -6.856 c 0.042,2.668 0.968,4.018 3.347,4.018 a 3.916,3.916 0 0 0 2.837,-1.053 h 0.178 v 1.911 z m -1.2,-6.049 c 0,-1.886 -0.646,-3.245 -2.37,-3.245 -1.461,0 -2.4,0.909 -2.617,3.245 z"
           transform="translate(-92.901,-33.116)"
           fill="#ffffff"
           id="path906"
           style="fill:#005480;fill-opacity:1" />
        <path
           d="m 515.17,153.444 c 0.51,-0.3 0.552,-0.578 0.552,-1.826 v -6.8 c 0,-1.249 -0.042,-1.521 -0.552,-1.826 v -0.1 h 2.336 l -0.1,2.039 h 0.042 a 3.78,3.78 0 0 1 3.78,-2.234 c 2.447,0 3.228,1.521 3.228,3.4 v 5.522 c 0,1.249 0,1.529 0.552,1.826 v 0.11 h -3.024 v -0.11 c 0.467,-0.28 0.552,-0.578 0.552,-1.8 v -4.97 c 0,-1.648 -0.425,-2.549 -1.843,-2.549 -2.022,0 -3.05,1.759 -3.05,4.018 v 3.5 c 0,1.249 0,1.529 0.552,1.826 v 0.11 h -3.025 z"
           transform="translate(-94.844,-33.116)"
           fill="#ffffff"
           id="path908"
           style="fill:#005480;fill-opacity:1" />
      </g>
    </g>
  </g>
</svg>
