<svg xmlns="http://www.w3.org/2000/svg" width="462.76" height="122.11" viewBox="0 0 462.76 122.11"><g transform="translate(-17 -16)"><rect width="462.76" height="122.11" transform="translate(17 16)" fill="none"/><path d="M122,121.7c-1.71.25-9.54,1.62-15,1.62-8.18,0-15.08-1-15.08-4.09,0-1.62,2-2,7.84-4.35,12.7-5.2,17.81-9.46,17.81-9.46-10.14-.76-29.91-4.17-29.91-9.71,0-.85.68-1.19,1.7-1.19s2.82.17,4.61.17c4.85,0,13.71-1.19,15.42-2-3.15-1.1-26-10.39-26-15.76,0-1.28.94-1.53,1.87-1.53,3,0,8.87,1.28,17.3,1.28,6,0,7.76-.43,15.08-.43a31.11,31.11,0,0,1,9.72,1.45l.08-.09c-3.07-2-7.75-6.9-7.75-11.84,0-2,.94-2.22,1.62-2.22,1.79,0,6.13,3.07,10,4.52,5,1.87,12.61,3.15,16.27,6.56,2.56-7.84,10.31-19.43,12.7-24.28,1.19-2.47,1.44-3.5,2.21-3.5.51,0,1.11.94,1.62,2.13.34-.85,1.87-3.92,2.64-3.92s1.71,2.22,1.71,2.22,1.44-2.9,2.38-2.9c1.19,0,2.3,3.5,2.3,3.5s1-2.22,2.05-2.22c1.7,0,1.87,4.77,6.64,12.87,4.26,7.24,7.42,12.1,8.35,14.57a13.08,13.08,0,0,1,5.37-2.47c3.32-.77,6.9-.77,9.71-1.37,3.41-.76,5.12-2.13,7.42-2.13a1.55,1.55,0,0,1,1.62,1.71c0,2.38-3.84,7.24-11.17,11.75l.09.09c6.56-1.7,16.27-.6,23.77-1.79,10.82-1.7,15-4,19.17-4,.94,0,2.47.42,2.47,2,0,1.19-.42,3.4-5.45,7.32a48.87,48.87,0,0,1-10.31,6.48c2.05,1,6.05,2.21,15.08,2.21,1.71,0,4.43-.08,5-.08,1,0,2.21.34,2.21,1.45,0,1.28-.42,3.15-8.35,6.13a59.66,59.66,0,0,1-16.7,3.58V104c9.12,4.51,13.72,4.85,13.72,8.26,0,3.75-6.64,3.84-10.73,3.84a152.581,152.581,0,0,1-15.26-.77l-.08.08c6.48,2.39,11.76,5.46,11.76,7.25,0,1.19-2,2.21-6.31,2.21-5.71,0-10.14-1.28-12.44-2.9l-.08.09c2.89,5.2,7.15,9,7.15,11.76,0,1.87-1.53,3.24-4.51,3.24-13,0-29.57-14.06-29.57-14.06-.42,4.17-.59,9.11-.59,14.57,0,3.23-.34,8.77-4.26,8.77-8.44,0-16-21.72-16-21.72s-20.28,14.22-30.68,14.22c-3.92,0-5-1.19-5-2.13,0-2.3,2.38-3.57,7.58-10.73l-.09-.09c-4.17,2-14.14,4.35-18.57,4.35-1.62,0-2.64-.26-2.64-1.36,0-2.22,6.81-6.05,8.6-7.08Zm-4.35-44.22c-3.32,0-10,.25-15.08.25-8.77,0-15.42-1.28-17-1.28-.42,0-.94,0-.94.52,0,1.79,5,5.36,18.66,11.5a100.9,100.9,0,0,0,27.27,7.58s7-3.92,14.23-4.26c-1.36-1.45-9.89-4.26-19.6-5.54-10.14-1.36-13.72-1.1-13.72-1.53a5.28,5.28,0,0,1,2.3-.26c2.39,0,6.65.26,12.87.94,14.06,1.45,18.49,3.75,19.43,4-1.07-1.87-16.7-11.92-28.38-11.92Zm-9.2,17.46a96.75,96.75,0,0,1-13.55.94c-2.3,0-4.34-.25-5.28-.25-.43,0-.6.08-.6.42,0,.94,2.39,3.41,13,5.71a112.71,112.71,0,0,0,17.3,2.3A56.82,56.82,0,0,0,126,99.2a155.868,155.868,0,0,1-17.51-4.26Zm43.88,1c-1.11-1.62-3.49-2.47-6.22-2.47a30.1,30.1,0,0,0-14.4,3.92c-4.94,3.06-13.8,10.39-23.94,15.42C99,117.18,93.58,118,93.58,119.23c0,.76,1.7,2.72,12.18,2.72s25-2.72,33.83-9,13.89-10.56,15.93-11.67c1.71-.94,2-1.28,2-2s-1.11-2-4.52-2-9.11,2.47-15,5.54c-4.35,2.21-5.71,2.89-6.05,2.89-.17,0-.17-.08-.17-.16,0-.43,1.36-.86,5.62-3.41s7.41-4.77,10.57-5.63A16.161,16.161,0,0,1,152,96Zm-20.79,24.62c-2.47.6-7.16,1.79-9.12,2.81-3,1.54-7.07,4.26-7.07,5.2,0,.17.09.26.68.26,3,0,14.32-2.56,17.81-4.26,2.3-1.11,3.75-4.69,5-7.16-1.21,1.14-4.19,2.41-7.26,3.18Zm4.26-46.18c.34,0,1.79.68,4.69,2.56a31,31,0,0,1,5.71,4.68,32.5,32.5,0,0,1,.85-5.11s-.68-1.19-4.09-3c-2.73-1.45-7.84-2.73-12-4.35s-8.34-4.51-9.54-4.51c-.42,0-.51.34-.51.93,0,4.78,4.52,10.06,14.74,14.91,5.54,2.65,7.67,3.84,10.48,6a10.35,10.35,0,0,1-.17-1.79,14.88,14.88,0,0,1,.09-1.53c-.69-1.28-10.31-8.7-10.31-8.78Zm-3.49,63.05c7.41,0,23.51-9.63,29.91-14.48s10.65-10.65,10.65-15.43a6.7,6.7,0,0,0-6-7c-3.07,0-5,3.41-7,7-4.86,8.53-8.52,12-9.88,12-.09,0-.17,0-.17-.09,0-.34,2-1.36,5.62-7.75,4-6.9,6.3-11.25,6.3-11.08,0-.17-.17-.34-.51-.34-.17,0-.34.09-.51.09-1.28.25-9.8,5.88-13.63,9.54a50.17,50.17,0,0,0-8.35,11.5,67.64,67.64,0,0,1-4.35,7.59c-2.13,3.15-5.28,6.13-5.28,7.32,0,.99,1.79,1.16,3.24,1.16Zm27.52-39.7c-1.28-1.62-4.69-6.05-4.69-15,0-13.21,7.42-20.71,7.42-31.7,0-.76,0-1.27-.26-1.27s-.94,1.7-7.92,14.05c-3.67,6.48-6.31,12.27-6.31,19.86,0,6.9,2.47,8.94,3.84,9.71a24.63,24.63,0,0,1-1.62-8.69,17.36,17.36,0,0,1,1.1-6.65c.17-.42.34-.68.52-.68s.17.09.17.26a30.7,30.7,0,0,0-.52,5.11,25.61,25.61,0,0,0,1.79,9.46c2,5,4.86,5.54,6.14,5.54Zm3.58.17c0-.43-1.45-6-1.45-10.82,0-4.35,1-8.1,1.36-8.1.17,0,.26.17.26.43a73.81,73.81,0,0,0-.51,7.84c0,3.4,1.11,12.18,3.58,12.18,1,0,1.27-1.28,1.27-2.73,0-2.3-.51-5.79-.51-11.24,0-4.77.51-15.51.51-22,0-8.69-1.36-10.9-2.38-10.9s-1.71,3.15-4,10.56c-1.19,3.84-4.51,11.33-4.51,19.34,0,11.08,4.51,16.11,5.79,16.11.54.04.63-.22.63-.64Zm4.17-47.8c0-1.54-.59-3.07-1.19-3.07s-1.11,1.7-1.11,3c0,.94.26,2.05,1.2,2.05s1.14-1.08,1.14-1.95ZM173,118a25.68,25.68,0,0,1-7.58,7.75c.42,2.22,7.24,19.26,13.38,19.26,2.47,0,2.89-3.75,2.89-6.9,0-6.22.26-11.93.26-14.32,0-2.64-3-4.85-3.92-6a23.229,23.229,0,0,1-2.9-3.83,3.18,3.18,0,0,0-.42,2c0,4.17,1.44,10.82,1.44,12.44,0,.25,0,.43-.08.43-.51,0-1.45-3.5-2-5.71Zm-2.3-67.4c.26,0,.51,1.45.94,1.45s.51-.94.51-1.87-.26-2.22-.6-2.22-.25,1.79-.51,1.79-.25-.26-.25-.6.08-.93.08-1.19c0-.43-.17-.85-.6-.85-1,0-1.44,3.83-1.44,4.34s.08.86.59.86c.76-.05,1.02-1.76,1.27-1.76Zm5.2,37.92a44.83,44.83,0,0,0-1.45-11.67c0-.09,0-.17.17-.17.68,0,2.56,3.91,2.56,11.58,0,5.8-1.37,7.93-1.37,8.61,0,.34.17.6,1.62.6,3.41,0,4.77-6.91,4.77-10.57a33.79,33.79,0,0,0-1-9.12c-1.79-7.24-4.77-12.44-7.41-18.66-1.62-3.75-1.71-5.62-3.07-5.62s-1.62,5.11-1.62,9,.34,13.63.34,19.09-.25,13-.25,14.74.34,2.89,1.87,2.89c3.47-.02,4.83-6.83,4.83-10.75Zm7.58,31.18c10.74,11.68,24.88,16.11,29.74,16.11,2.38,0,3.24-.94,3.24-1.88,0-2.3-4.52-5-13.21-21.64-7.24-13.89-13.72-14.65-16.7-14.65a6.92,6.92,0,0,0-4.86,1.7c3.41,1.36,9.72,12.1,10.82,13.46.94,1.19,1.37,1.71,1.37,2,0,.09-.09.09-.17.09-.26,0-.86-.6-1.62-1.54-.94-1.1-2.13-2.81-6-7.75s-6.56-6.39-9.54-6.39c-1.79,0-3.92,1.19-3.92,2.73,3.26,4.68,3.51,9.7,10.84,17.71Zm4.94-28.37c.51-.08,2.3-1.19,2.3-8.61,0-8.52-8.94-20.19-12.26-27.43-2.9-6.31-2.82-7.67-3.41-7.67-.43,0-1,1.11-1,3.58,0,6.56,5.2,15.08,7.33,21a37.43,37.43,0,0,1,2.64,14c0,6.81-2.38,10.31-2.38,10.31a.283.283,0,0,0,.17.08c1.36,0,5.36-3.15,5.36-10,0-2.05-.34-3.58-.34-4.26,0-.26.09-.43.17-.43.9-.16,1.41,8.61,1.41,9.38Zm21.82-4.52c2.13,0,4.09.09,4.09.35,0,.42-4.35.17-11.42,1.36a30.42,30.42,0,0,0-13,5.2s6.22-.43,10.65-.43a85.221,85.221,0,0,1,15.16,1.19c2,0,10.31-1.53,17.47-5.54,11.25-6.3,14.06-10,14.06-12,0-.68-.51-.94-1.53-.94-.86,0-4.6.86-12.7,2.9-7.75,2-15.34,1.79-22.66,2.13-15,.68-18.92,7-18.92,9.46a53.47,53.47,0,0,1,18.79-3.73ZM207.41,76c5.63-4.52,5.71-6.9,5.71-7.24a.63.63,0,0,0-.68-.69c-1.28,0-4.43,1.71-7.07,2.22-4.35.85-12.1.94-14.57,4.17A26.409,26.409,0,0,1,192.42,79c1.11-.94,8.09-4.09,9.54-4.09.17,0,.26,0,.26.09,0,.25-1.37.76-4.09,2a23.211,23.211,0,0,0-5.37,3.41,13.84,13.84,0,0,1,.17,2.73c0,.17,0,.51-.09,1.53C195.83,83,202.47,80,207.41,76Zm-8,27.18c3,3.32,5.12,7.41,6.14,8.18,1.28,1,14.66,3.32,28.54,3.32,5.8,0,8.44-.59,8.44-2.47,0-2.13-7-4.09-15.85-8.69-4.6-2.39-12.44-9-23-9-8.61,0-11.17.94-11.34,1,1.62.26,13.29,3.75,13.29,5.11,0,0,0,.09-.08.09-.43,0-2.56-.94-5.88-2.13a23.57,23.57,0,0,0-6.13-1.45,1.34,1.34,0,0,0-.6.08,33.671,33.671,0,0,1,6.46,5.99ZM223,123.57c2.89,0,4.85-.42,4.85-1,0-1.19-5.19-4.17-8.94-5.2s-6.73-1.1-9.8-1.79C210.74,118.46,210.65,123.57,223,123.57Zm6.73-20.87c3.92,0,14.91-2.47,18.91-4.43,3.84-1.88,5.29-2.9,5.29-3.84,0-.59-.69-.59-1.45-.59-.94,0-4.26.25-6.9.25a40.41,40.41,0,0,1-10.82-1.28c-4.18,2.3-12,3.92-15.68,4.52,3.76,2.39,7.33,5.37,10.66,5.37Z" transform="translate(-58.73 -17.93)" fill="#fff"/><g transform="translate(6.188 2.62)"><path d="M216.44,110.146V108.94H457.255v1.206Z" transform="translate(0 -12.807)" fill="#fff"/><path d="M278.31,65.779c.85-.476,1.223-.917,1.223-2.88V45.238c0-1.962-.408-2.4-1.223-2.88v-.17h2.481V65.924H278.31Zm3.729-23.566h3.492c4.477,0,6.8,2.073,6.8,5.5a5.2,5.2,0,0,1-4.511,5.454v.1c3.4.578,5.191,2.786,5.191,5.768,0,3.593-2.039,5.666-6.244,6.032v.17c4.477-.17,7.7-1.826,7.7-6.3a5.445,5.445,0,0,0-4.477-5.734v-.161a5.318,5.318,0,0,0,3.8-5.488,5.471,5.471,0,0,0-3.661-5.428l.068-.17a5.293,5.293,0,0,1,4.953,5.6c0,3.4-1.8,4.817-3.152,5.42v.068c1.86.578,3.831,2.379,3.831,5.836,0,6.066-4.919,7.017-9.022,7.017h-4.757Zm3.016,10.407c2.786,0,5.947-1.011,5.947-4.842,0-3.3-2.268-4.341-5.395-4.341h-2.3v9.158Zm0,11.74c3.7-.025,6.584-1.13,6.584-5.378,0-3.526-2.549-5.1-6.482-5.1h-1.894V64.335Z" transform="translate(-59.203 -17.959)" fill="#fff"/><path d="M304.93,65.821c.85-.476,1.223-.917,1.223-2.88V45.28c0-1.962-.408-2.4-1.223-2.88v-.17h2.481V65.966H304.93Zm3.729-23.566h10.194v2.752h-.17c-.476-.977-.917-1.555-4.1-1.555h-4.664v9.421h3.933c2.608,0,3.152-.331,3.56-1.011h.17v3.492h-.17c-.442-.782-.85-1.223-3.661-1.223h-3.831V64.683H314.5c3.967,0,4.409-.646,4.885-1.631h.17v2.914H308.659Z" transform="translate(-63.208 -18.001)" fill="#fff"/><path d="M327.72,65.79c.85-.476,1.223-.917,1.223-2.88V45.248c0-1.962-.408-2.4-1.223-2.88V42.2h2.472V65.934H327.72Zm3.729-23.566h2.71c5.021,0,7.433,2.549,7.433,6.3,0,3.024-1.325,5.87-6.278,6.516v.1c.238.34.51.85.748,1.257,2,3.56,5.191,8.308,9.124,9.081l.068-.136c-3.729-1.826-6.754-7.085-8.274-9.931,3.865-1.019,6.066-2.752,6.066-6.89A6.27,6.27,0,0,0,338.8,42.19l.068-.17a6.312,6.312,0,0,1,5.564,6.609c0,4.375-2.549,6.312-5.7,7.229,2.549,4.876,5.666,8.444,8.988,10l-.068.272a4.57,4.57,0,0,1-1.359.17c-5.59,0-8.844-5.1-12.174-10.713h-1.385V62.91c0,1.962.306,2.4,1.113,2.88v.17h-2.37Zm2.209,11.936c4.035,0,6.575-1.7,6.575-5.6,0-4.035-2.88-5.1-5.734-5.1h-1.792v10.67Z" transform="translate(-66.638 -17.969)" fill="#fff"/><path d="M362.032,66.2c-3.254-.408-8.852-3.254-8.852-11.893,0-10.194,7.391-12.548,13.592-12.548,3.288,0,5.428.51,6.473.51a.909.909,0,0,0,.578-.136h.2V46h-.2c-.977-1.4-2.956-2.336-6.5-2.336-4.681,0-9.973,2.812-9.973,10.475,0,8.24,5.462,10.848,10.789,10.848a8.062,8.062,0,0,0,2.336-.272V57.451c0-1.962-.51-2.4-1.325-2.88V54.4H371.7v11.35a15.215,15.215,0,0,1-3.831.476c-7.9,0-11.893-4.919-11.893-11.893,0-6.066,3.118-10.916,10.339-11.46V42.7c-7.7,0-11.8,4.715-11.8,11.63,0,5.7,2.71,10.245,7.561,11.732Zm10.95-11.8h2.481v.17c-.849.476-1.223.917-1.223,2.88v7.731l-1.257.34Z" transform="translate(-70.469 -17.93)" fill="#fff"/><path d="M384.75,65.821c.85-.476,1.223-.917,1.223-2.88V45.28c0-1.962-.408-2.4-1.223-2.88v-.17h2.472V65.966H384.75Zm3.729-23.566h2.481v.17c-.85.476-1.223.917-1.223,2.88V62.916c0,1.962.408,2.4,1.223,2.88v.17h-2.481Z" transform="translate(-75.219 -18.001)" fill="#fff"/><path d="M396,65.821c.612-.374,1.189-.985,1.971-3.084l6.915-18.69a3.848,3.848,0,0,0-1.045-1.6v-.17h1.826l8.5,23.736h-2.71v-.2c.705-.476.977-.85.272-2.812l-2-5.6h-8.342l-2.132,5.947c-.578,1.589-.17,2.166.476,2.472V66H396Zm13.329-9.685-3.7-10.381L401.87,56.137ZM407.044,42.23h1.385l7.2,20.04c.909,2.549,1.521,3.118,2.268,3.526v.17h-2.3Z" transform="translate(-76.912 -18.001)" fill="#fff"/><path d="M425.26,65.821c.748-.442,1.215-.85,1.215-2.438v-17.7c0-2.234-.467-2.812-1.215-3.288v-.17h1.555l19.369,22.419v1.962l-18.35-21.179V63.358c0,1.589.374,2,1.121,2.438v.17h-3.7Zm3.177-23.591h2.549v.17a.272.272,0,0,0-.136.272c0,.51.85,1.461,1.7,2.37l12.276,14.315V44.838c0-1.589-.476-2-1.223-2.438v-.17h3.8v.17c-.739.442-1.215.85-1.215,2.438V62.814Z" transform="translate(-81.315 -18.001)" fill="#fff"/><path d="M457,60.843h.2a6.151,6.151,0,0,0,6.134,4.171c2.846,0,4.545-1.453,4.545-4.171,0-5.692-10.517-6.1-10.517-13.117,0-3.33,2.073-5.947,7.646-5.947,2.268,0,4.035.51,4.876.51a.663.663,0,0,0,.476-.136h.2v3.7h-.2a5.411,5.411,0,0,0-4.868-2.4c-3.016,0-4.3,1.793-4.3,3.7,0,5.386,10.509,5.59,10.509,13.159a5.642,5.642,0,0,1-4.137,5.828l-.1-.17c2.039-.917,2.948-2.88,2.948-5.454,0-7.162-10.543-7.2-10.543-13.227a4.477,4.477,0,0,1,3.763-4.469V42.68c-3.526.306-4.987,2.549-4.987,4.817,0,6.541,10.551,6.745,10.551,13.185,0,2.685-1.359,5.564-6.006,5.564-3.526,0-4.851-1.087-5.6-1.087a.62.62,0,0,0-.4.136H457Z" transform="translate(-86.091 -17.933)" fill="#fff"/><path d="M479.77,65.821c.85-.476,1.223-.917,1.223-2.88V45.28c0-1.962-.408-2.4-1.223-2.88v-.17h2.481V65.966H479.77Zm3.738-23.566h2.472v.17c-.849.476-1.223.917-1.223,2.88v8.206l8.41-8.648c.985-1.011,1.291-1.623,1.291-2a.6.6,0,0,0-.2-.442v-.17h4.477v.17a11.393,11.393,0,0,0-3.8,2.676l-6.89,6.958,9.124,10.848a13.831,13.831,0,0,0,3.118,2.914v.17h-2.268L487.1,52.943l-.85.917,10.194,12.106h-2.8v-.144a.5.5,0,0,0,0-.238c0-.34-.272-1.079-1.563-2.642l-6.8-8.172-.578.578v7.595c0,1.962.408,2.4,1.223,2.88v.17h-2.472Z" transform="translate(-89.517 -18.001)" fill="#fff"/><path d="M505.36,65.821c.6-.374,1.181-.985,1.962-3.084l6.915-18.69a3.687,3.687,0,0,0-1.045-1.6v-.17h1.826l8.5,23.736H520.8v-.2c.714-.476.985-.85.272-2.812l-2-5.6h-8.325l-2.132,5.947c-.578,1.589-.17,2.166.476,2.472V66H505.36Zm13.287-9.685-3.7-10.381-3.763,10.381ZM516.378,42.23H517.8l7.187,20.04c.917,2.549,1.529,3.118,2.268,3.526v.17h-2.3Z" transform="translate(-93.368 -18.001)" fill="#fff"/><path d="M284.846,111.154c.807-.476,1.113-.917,1.113-2.888V88.786h-3.7c-2.846,0-3.288.578-3.763,1.563h-.17V87.58h8.886v23.787h-2.37Zm3.627-23.574h8.861v2.786h-.17c-.425-.985-.909-1.58-3.763-1.58h-3.7v19.463c0,1.971.306,2.413,1.121,2.888v.17h-2.37Z" transform="translate(-59.206 -24.825)" fill="#fff"/><path d="M304.81,111.118c.849-.476,1.223-.917,1.223-2.888V90.6c0-1.971-.408-2.413-1.223-2.888v-.17h2.481v23.787H304.81Zm3.729-23.574h2.719c5.012,0,7.425,2.549,7.425,6.312,0,3.016-1.325,5.862-6.278,6.507v.1c.238.34.51.85.748,1.257,2,3.56,5.191,8.308,9.124,9.09l.068-.136c-3.729-1.835-6.754-7.094-8.274-9.939,3.865-1.019,6.066-2.744,6.066-6.881a6.3,6.3,0,0,0-4.248-6.346l.068-.17a6.32,6.32,0,0,1,5.564,6.618c0,4.375-2.549,6.3-5.7,7.221,2.549,4.885,5.666,8.444,8.988,10.007l-.068.263a4.554,4.554,0,0,1-1.351.17c-5.6,0-8.852-5.1-12.174-10.713h-1.393v7.323c0,1.971.306,2.413,1.121,2.888v.17h-2.379Zm2.209,11.893c4.035,0,6.575-1.7,6.575-5.59,0-4.035-2.88-5.1-5.734-5.1H309.8V99.463Z" transform="translate(-63.19 -24.789)" fill="#fff"/><path d="M329.437,110.206c.6-.374,1.181-.985,1.962-3.092l6.915-18.69a3.848,3.848,0,0,0-1.045-1.6v-.17H339.1l8.5,23.787h-2.71v-.17c.714-.476.977-.85.272-2.82l-2-5.59h-8.342l-2.132,5.947c-.578,1.6-.17,2.175.476,2.481v.17H329.42Zm7.595-28.884a2,2,0,1,1-2.022,1.954,1.937,1.937,0,0,1,2.022-2Zm5.692,19.259-3.7-10.381-3.763,10.381Zm-4.613-17.262a1.062,1.062,0,0,0-1.079-1.121,1.121,1.121,0,1,0,0,2.243,1.062,1.062,0,0,0,1.079-1.164Zm2.345,3.4h1.351l7.2,20.04c.909,2.549,1.521,3.126,2.268,3.534v.17h-2.3ZM343,81.365a2,2,0,1,1-2,2,1.937,1.937,0,0,1,2.022-2.081Zm1.087,2A1.062,1.062,0,0,0,343,82.24a1.121,1.121,0,1,0,0,2.243,1.062,1.062,0,0,0,1.113-1.206Z" transform="translate(-66.894 -23.876)" fill="#fff"/><path d="M359,111.124c.85-.476,1.223-.917,1.223-2.888V90.608c0-1.971-.408-2.413-1.223-2.888v-.17h2.472v23.787H359Zm3.729-23.574h3.186c8.5,0,12.208,4.511,12.208,11.358,0,6.584-3.22,10.789-10.135,11.469v.136c7.459-.34,11.6-3.661,11.6-11.562,0-6.346-3.288-10.109-7.646-11.4l.068-.17c3.288.408,8.946,2.651,8.946,11.5,0,10.848-7.561,12.412-13.525,12.412h-4.689Zm2.336,22.147c2.82,0,11.7-.136,11.7-10.721,0-8.037-5.59-10.194-10.848-10.194h-1.928v20.924Z" transform="translate(-71.345 -24.795)" fill="#fff"/><path d="M397.912,111.551c-3.254-.4-8.852-3.254-8.852-11.893,0-10.194,7.391-12.548,13.592-12.548,3.288,0,5.42.51,6.473.51a.909.909,0,0,0,.578-.136h.2v3.865h-.2c-.951-1.419-2.948-2.336-6.473-2.336-4.681,0-9.973,2.812-9.973,10.475,0,8.24,5.462,10.857,10.78,10.857a8.087,8.087,0,0,0,2.345-.272v-7.289c0-1.971-.51-2.413-1.325-2.888v-.136h2.549v11.367a15.64,15.64,0,0,1-3.84.467c-7.9,0-11.893-4.91-11.893-11.893,0-6.066,3.126-10.916,10.347-11.46v-.17c-7.7,0-11.8,4.715-11.8,11.63,0,5.7,2.71,10.245,7.561,11.74Zm10.95-11.791h2.481v.17c-.85.476-1.223.917-1.223,2.888v7.731l-1.257.34Z" transform="translate(-75.868 -24.754)" fill="#fff"/><path d="M417.84,109.989c.6-.374,1.181-.985,1.962-3.092l6.915-18.69a3.764,3.764,0,0,0-1.045-1.6v-.17H427.5l8.5,23.787h-2.727v-.17c.714-.476.977-.85.272-2.82l-1.971-5.658h-8.342l-2.132,5.947c-.578,1.6-.17,2.175.476,2.481v.17H417.84Zm13.287-9.625-3.7-10.381-3.763,10.381Zm-2.676-20.482a2.685,2.685,0,1,1-2.676,2.642,2.549,2.549,0,0,1,2.676-2.685Zm1.631,2.642a1.631,1.631,0,1,0-1.631,1.7,1.606,1.606,0,0,0,1.631-1.7Zm-1.223,3.9h1.385l7.2,20.04c.918,2.549,1.521,3.126,2.268,3.534v.17h-2.3Z" transform="translate(-80.198 -23.66)" fill="#fff"/><path d="M447.25,111.118c.85-.476,1.223-.917,1.223-2.888V90.6c0-1.971-.408-2.413-1.223-2.888v-.17h2.472v23.787H447.25Zm3.729-23.574h2.71c5.021,0,7.433,2.549,7.433,6.312,0,3.016-1.325,5.862-6.278,6.507v.1c.238.34.51.85.748,1.257,2,3.56,5.191,8.308,9.124,9.09l.068-.136c-3.729-1.835-6.754-7.094-8.274-9.939,3.865-1.019,6.066-2.744,6.066-6.881a6.3,6.3,0,0,0-4.248-6.346l.068-.17a6.32,6.32,0,0,1,5.564,6.618c0,4.375-2.549,6.3-5.7,7.221,2.549,4.885,5.666,8.444,8.988,10.007l-.068.263a4.571,4.571,0,0,1-1.359.17c-5.59,0-8.844-5.1-12.174-10.713h-1.385v7.323c0,1.971.306,2.413,1.113,2.888v.17H451Zm2.2,11.893c4.035,0,6.584-1.7,6.584-5.59,0-4.035-2.88-5.1-5.734-5.1h-1.792V99.463Z" transform="translate(-84.624 -24.789)" fill="#fff"/><path d="M473.91,111.124c.85-.476,1.223-.917,1.223-2.888V90.608c0-1.971-.408-2.413-1.223-2.888v-.17h2.472v23.787H473.91Zm3.729-23.574h3.186c8.5,0,12.208,4.511,12.208,11.358,0,6.584-3.22,10.789-10.135,11.469v.136c7.459-.34,11.6-3.661,11.6-11.562,0-6.346-3.288-10.109-7.646-11.4l.068-.17c3.288.408,8.946,2.651,8.946,11.5,0,10.848-7.561,12.412-13.525,12.412h-4.7Zm2.336,22.147c2.82,0,11.707-.136,11.707-10.721,0-8.037-5.6-10.194-10.857-10.194H478.9v20.924Z" transform="translate(-88.635 -24.795)" fill="#fff"/><path d="M504.92,111.154c.85-.476,1.215-.917,1.215-2.888V90.638c0-1.971-.4-2.413-1.215-2.888v-.17h2.472v23.787H504.92Zm3.729-23.574h10.194v2.786h-.161c-.51-.985-.952-1.58-4.129-1.58h-4.647v9.43h3.933c2.608,0,3.152-.34,3.56-1.019h.17v3.483h-.17c-.442-.782-.85-1.223-3.661-1.223h-3.831v10.568h4.579c3.967,0,4.4-.646,4.876-1.631h.17v2.922H508.649Z" transform="translate(-93.302 -24.825)" fill="#fff"/><path d="M527.35,111.154c.748-.442,1.215-.85,1.215-2.447V91.046c0-2.243-.467-2.82-1.215-3.3v-.17H528.9l19.386,22.444v1.962l-18.35-21.162v17.908c0,1.6.374,2,1.121,2.447v.17h-3.7Zm3.186-23.574h2.549v.17a.272.272,0,0,0-.136.272c0,.51.849,1.461,1.7,2.379l12.276,14.306V90.2c0-1.6-.476-2-1.223-2.447v-.17h3.8v.17c-.748.442-1.215.85-1.215,2.447v17.967Z" transform="translate(-96.677 -24.825)" fill="#fff"/><path d="M278.31,152.8c.433-.255.561-.493.561-1.334V140.308c0-1.24-.042-1.521-.561-1.826v-.1H283.1c3.118,0,4.647,1.308,4.647,3.475a3.4,3.4,0,0,1-2.549,3.4v.059a3.339,3.339,0,0,1,3.041,3.449c0,2.081-1.334,4.248-5.327,4.248-1.359,0-2.549-.042-4-.059h-.561Zm2.549-8.011h1.308c2.387,0,3.543-.9,3.543-2.668,0-1.478-.705-2.549-2.922-2.549a19.06,19.06,0,0,0-1.928.085Zm0,6.8a8.74,8.74,0,0,0,1.843.153c2.37,0,3.4-1.113,3.4-3.033s-1.555-2.642-3.916-2.642h-1.351Z" transform="translate(-59.203 -32.469)" fill="#fff"/><path d="M300.344,153.248c-.382-.144-1.266.5-3.092.5-3.245,0-5.182-1.7-5.182-5.632,0-3.033,1.7-5.437,4.817-5.437s4.146,2.277,4.146,4.638a9.869,9.869,0,0,1-.043,1.053h-6.856c.043,2.668.968,4.018,3.356,4.018a3.95,3.95,0,0,0,2.837-1.053h.17v1.911Zm-1.181-6.049c0-1.886-.646-3.245-2.362-3.245-1.461,0-2.4.909-2.625,3.245Z" transform="translate(-61.273 -33.116)" fill="#fff"/><path d="M304.922,153.439c.51-.3.561-.578.561-1.826v-6.8c0-1.249-.051-1.521-.561-1.826v-.1h2.387s-.178,2.319-.221,2.319h0c.544-1.5,1.487-2.668,3.526-2.549V144.5c-1.979-.323-3.262.773-3.262,3.933v3.186c0,1.266.085,1.521.552,1.8v.11H304.88Z" transform="translate(-63.201 -33.111)" fill="#fff"/><path d="M318.534,152.025c2.727.11,3.891,1.317,3.891,3.118,0,2.625-2.192,3.763-5.055,3.763s-4.57-1.121-4.57-3.143a2.735,2.735,0,0,1,1.869-2.617,1.81,1.81,0,0,1-1.189-1.631,2.039,2.039,0,0,1,1.419-1.826,3.509,3.509,0,0,1-1.759-3.228,3.774,3.774,0,0,1,4.129-3.78,6.024,6.024,0,0,1,1.589.2h3.458v1.351l-2.064-.2v.068a2.651,2.651,0,0,1,1.181,2.362c0,2.175-1.376,3.78-4.044,3.78a5.462,5.462,0,0,1-1.376-.144,1.028,1.028,0,0,0-.773.943c0,.62.586.85,1.937.926Zm-2,1.5a3.927,3.927,0,0,1-.85-.059,2.158,2.158,0,0,0-1.121,1.886c0,1.376,1.1,2.175,2.922,2.175s3.092-.714,3.092-2.175c0-1.181-.646-1.7-2.447-1.759Zm3.05-7.068a2.246,2.246,0,0,0-2.319-2.549c-1.47,0-2.277.968-2.277,2.549s.85,2.549,2.277,2.549A2.259,2.259,0,0,0,319.588,146.46Z" transform="translate(-64.393 -33.116)" fill="#fff"/><path d="M326.28,152.655c.518-.3.561-.578.561-1.826v-6.8c0-1.249-.042-1.521-.561-1.826v-.1h2.472v8.767c0,1.266.085,1.521.561,1.8v.11H326.28Zm1.5-15.215a1.274,1.274,0,0,1,0,2.549,1.257,1.257,0,0,1-1.291-1.249,1.283,1.283,0,0,1,1.291-1.3Z" transform="translate(-66.421 -32.327)" fill="#fff"/><path d="M332.961,144.838c0-1.249-.042-1.521-.561-1.826v-.1h2.472v6.873c0,1.657.391,2.6,1.911,2.6,1.92,0,2.948-2,2.948-3.848v-3.7c0-1.249,0-1.521-.561-1.826v-.1h2.472v8.742c0,1.249.042,1.529.561,1.826v.11h-2.387l.153-2.039h-.042a3.764,3.764,0,0,1-3.763,2.234c-2.447,0-3.2-1.529-3.2-3.4Z" transform="translate(-67.342 -33.151)" fill="#fff"/><path d="M346.573,151.34h.17a3.215,3.215,0,0,0,2.795,1.121c1.291,0,2.192-.476,2.192-1.614,0-2.362-5.31-1.436-5.31-5.1,0-1.852,1.419-3.05,4.044-3.05,1.283,0,2.013.34,2.234.127h.161v2.081h-.153a2.931,2.931,0,0,0-2.4-.943c-1.376,0-2.047.646-2.047,1.529,0,2.464,5.31,1.461,5.31,5.174,0,2.022-1.546,3.1-4.078,3.1-1.572,0-2.5-.391-2.752-.2h-.127Z" transform="translate(-69.452 -33.119)" fill="#fff"/><path d="M363.7,152.8c.425-.255.561-.493.561-1.334V140.308c0-1.24-.042-1.521-.561-1.826v-.1h4.791c3.118,0,4.638,1.308,4.638,3.475a3.347,3.347,0,0,1-2.549,3.4v.059a3.339,3.339,0,0,1,2.99,3.509c0,2.081-1.334,4.248-5.335,4.248-1.351,0-2.549-.042-3.993-.059h-.561Zm2.549-8.011h1.317c2.387,0,3.543-.9,3.543-2.668,0-1.478-.705-2.549-2.922-2.549a19.238,19.238,0,0,0-1.937.085Zm0,6.8a8.877,8.877,0,0,0,1.852.153c2.362,0,3.4-1.113,3.4-3.033s-1.546-2.642-3.908-2.642h-1.359Z" transform="translate(-72.049 -32.469)" fill="#fff"/><path d="M377.41,148.117c0-3.143,1.869-5.437,4.987-5.437s5.029,2.319,5.029,5.437c0,3.3-1.894,5.632-5.029,5.632S377.41,151.252,377.41,148.117Zm7.952,0c0-2.549-1.138-4.044-2.965-4.044s-2.922,1.5-2.922,4.044,1.07,4.248,2.922,4.248S385.362,150.649,385.362,148.117Z" transform="translate(-74.115 -33.116)" fill="#fff"/><path d="M392.274,143.491H390.21v-1.155h2.064v-2.99l1.911-.255v3.245h2.99v1.155h-2.99v6.473c0,1.325.348,1.886,1.4,1.886a1.954,1.954,0,0,0,1.461-.578h.144v1.614a14.912,14.912,0,0,1-2.149.3c-2.124,0-2.769-.9-2.769-3.313Z" transform="translate(-76.041 -32.576)" fill="#fff"/><path d="M406.823,151.638h-.042a3.611,3.611,0,0,1-3.568,2.107,2.752,2.752,0,0,1-3.024-2.948c0-2.447,2.277-3.823,6.422-3.823v-.561c0-1.7-.518-2.387-2.4-2.387a4.1,4.1,0,0,0-2.99,1.266h-.2v-2.149h.17c.586.11,1.444-.493,3.4-.493,3.024,0,3.95,1.444,3.95,3.874v4.384c0,.943,0,2.387.561,2.549v.11h-2.3Zm-.212-3.551c-3.568,0-4.511,1.334-4.511,2.642a1.529,1.529,0,0,0,1.7,1.64,2.905,2.905,0,0,0,2.812-2.965Z" transform="translate(-77.541 -33.111)" fill="#fff"/><path d="M413.13,153.444c.518-.3.561-.578.561-1.826v-6.8c0-1.249-.042-1.521-.561-1.826v-.1h2.345l-.1,2.039h.042a3.78,3.78,0,0,1,3.78-2.234c2.447,0,3.22,1.521,3.22,3.4v5.522c0,1.249.042,1.529.561,1.826v.11h-3.033v-.11c.476-.28.561-.578.561-1.8v-4.97c0-1.648-.425-2.549-1.843-2.549-2.022,0-3.058,1.759-3.058,4.018v3.5c0,1.249,0,1.529.561,1.826v.11H413.13Z" transform="translate(-79.49 -33.116)" fill="#fff"/><path d="M427.2,152.655c.518-.3.561-.578.561-1.826v-6.8c0-1.249-.042-1.521-.561-1.826v-.1h2.472v8.767c0,1.266.085,1.521.561,1.8v.11H427.2Zm1.529-15.215a1.274,1.274,0,1,1,0,2.549,1.257,1.257,0,0,1-1.291-1.249,1.283,1.283,0,0,1,1.291-1.3Z" transform="translate(-81.607 -32.327)" fill="#fff"/><path d="M440.756,153.359a20.151,20.151,0,0,1-2.642.391c-2.88,0-4.944-1.894-4.944-5.632,0-2.99,1.7-5.437,5.055-5.437a16.441,16.441,0,0,0,2.549.127h.085v2.107h-.187a3.109,3.109,0,0,0-2.387-.85c-2.345,0-3.033,1.911-3.033,4.061,0,2.387.8,4.248,3.16,4.248a2.9,2.9,0,0,0,2.319-.951h.17V153.4Z" transform="translate(-82.505 -33.116)" fill="#fff"/><path d="M460.549,147.629c0-1.249-.042-1.529-.561-1.826v-.136h3.075v.11c-.459.255-.561.51-.561,1.826v4.638a14.085,14.085,0,0,1-4.6.8c-4.834,0-7.348-2.668-7.348-7.442,0-4.248,2.549-7.459,7.756-7.459,1.835,0,3.271.518,3.721.263h.153v2.549h-.2c-.408-.6-1.6-1.359-3.891-1.359-4.061,0-5.437,3.033-5.437,6.083,0,3.721,1.911,5.947,5.31,5.947a6.388,6.388,0,0,0,2.549-.425Z" transform="translate(-85.12 -32.433)" fill="#fff"/><path d="M474.292,151.638h-.042a3.61,3.61,0,0,1-3.568,2.107,2.761,2.761,0,0,1-3.033-2.948c0-2.447,2.285-3.823,6.431-3.823v-.561c0-1.7-.518-2.387-2.4-2.387a4.1,4.1,0,0,0-2.99,1.266h-.2v-2.149h.17c.586.11,1.444-.493,3.4-.493,3.024,0,3.95,1.444,3.95,3.874v4.384c0,.943,0,2.387.561,2.549v.11h-2.3Zm-.212-3.551c-3.568,0-4.511,1.334-4.511,2.642a1.521,1.521,0,0,0,1.7,1.64,2.905,2.905,0,0,0,2.82-2.965Z" transform="translate(-87.692 -33.111)" fill="#fff"/><path d="M480.63,153.439c.518-.3.561-.578.561-1.826v-6.8c0-1.249-.042-1.521-.561-1.826v-.1h2.387s-.17,2.319-.212,2.319h.042a3.274,3.274,0,0,1,3.526-2.549V144.5c-1.979-.323-3.271.773-3.271,3.933v3.186c0,1.266.085,1.521.561,1.8v.11H480.63Z" transform="translate(-89.647 -33.111)" fill="#fff"/><path d="M496.068,150.745h-.051a3.619,3.619,0,0,1-3.4,2.175c-2.455,0-4.129-1.92-4.129-5.225,0-3.551,2-5.8,5.242-5.8a3.925,3.925,0,0,1,2.09.45v-3.4c0-1.249-.042-1.529-.561-1.826V137h2.472v13.881c0,1.164.11,1.444.561,1.7v.11h-2.4Zm-.238-6.992a2.7,2.7,0,0,0-1.894-.578c-2.039,0-3.4,1.444-3.4,4.409,0,2.4.85,3.848,2.549,3.848,2.022,0,2.778-2.217,2.778-3.7Z" transform="translate(-90.829 -32.261)" fill="#fff"/><path d="M510.534,153.248c-.391-.144-1.266.5-3.092.5-3.245,0-5.182-1.7-5.182-5.632,0-3.033,1.7-5.437,4.817-5.437s4.146,2.277,4.146,4.638a9.877,9.877,0,0,1,0,1.053h-6.856c.042,2.668.968,4.018,3.347,4.018a3.916,3.916,0,0,0,2.837-1.053h.178v1.911Zm-1.2-6.049c0-1.886-.646-3.245-2.37-3.245-1.461,0-2.4.909-2.617,3.245Z" transform="translate(-92.901 -33.116)" fill="#fff"/><path d="M515.17,153.444c.51-.3.552-.578.552-1.826v-6.8c0-1.249-.042-1.521-.552-1.826v-.1h2.336l-.1,2.039h.042a3.78,3.78,0,0,1,3.78-2.234c2.447,0,3.228,1.521,3.228,3.4v5.522c0,1.249,0,1.529.552,1.826v.11h-3.024v-.11c.467-.28.552-.578.552-1.8v-4.97c0-1.648-.425-2.549-1.843-2.549-2.022,0-3.05,1.759-3.05,4.018v3.5c0,1.249,0,1.529.552,1.826v.11H515.17Z" transform="translate(-94.844 -33.116)" fill="#fff"/></g></g></svg>