<?xml version="1.0" encoding="utf-8"?>
<!-- Generator: Adobe Illustrator 24.1.0, SVG Export Plug-In . SVG Version: 6.00 Build 0)  -->
<svg version="1.1" id="Lager_1" xmlns="http://www.w3.org/2000/svg" xmlns:xlink="http://www.w3.org/1999/xlink" x="0px" y="0px"
	 viewBox="0 0 2323.7 757.7" style="enable-background:new 0 0 2323.7 757.7;" xml:space="preserve">
<style type="text/css">
	.st1{fill:#B18931;}
	.st2{fill:none;stroke:#000000;stroke-width:2;stroke-miterlimit:10;}
</style>
<g>
	<path class="st1" d="M368.1,647.9c-2.6-0.3-5.1-0.7-7.7-1c-10.7-1.4-21.4-2.6-32.1-4.3c-16.5-2.6-32.5-7.6-47.9-13.8
		c-26.2-10.4-50.2-24.8-71.9-42.9c-20.5-17.1-38-36.8-52.7-59.1c-11.2-16.9-20.2-35-27.2-54c-5.8-15.7-9.7-31.9-12.5-48.4
		c-3.6-20.5-4.2-41.2-3-61.9c0.9-16.1,3.1-32.2,7.8-47.7c4.5-14.6,9.1-29.1,14.6-43.3c5.6-14.3,13.8-27.3,22.5-39.9
		c14.5-21.3,31.7-40.2,51.6-56.6c16.6-13.7,34.5-25.5,54.1-34.5c7.6-3.5,14.9-7.5,22.7-10.3c9.2-3.3,18.7-5.8,28.2-8.2
		c13.6-3.5,27.3-6.2,41.3-6.8c13.4-0.5,26.8-1.4,40.2-1c9.9,0.3,19.8,2.2,29.6,3.8c17.4,2.8,34.3,7.5,50.6,14
		c11.4,4.6,22.3,10.6,33.4,16.1c15.6,7.9,29.6,18.3,42.9,29.6c24.1,20.4,43.7,44.5,59.4,71.9c5.9,10.3,11.6,20.6,15.4,31.8
		c3.6,10.5,7.5,21,10,31.8c3.2,13.9,5.9,28,7.2,42.1c1.4,15.3,2,30.9,0.8,46.1c-1.3,16.2-4.8,32.4-8.3,48.3
		c-3.5,16-9.6,31.2-16.8,46c-9.4,19.3-20.7,37.2-34.2,53.9c-18.5,22.7-40.3,41.8-65.1,57.4c-19.2,12.1-39.6,21.7-61.3,28.2
		c-10.6,3.2-21.5,5.8-32.4,7.8c-10.2,1.9-20.7,2.6-31,3.9c-1.7,0.2-3.4,0.5-5.1,0.8C383.4,647.9,375.7,647.9,368.1,647.9z
		 M632.3,381.1c0.3,0,0.7-0.1,1-0.1c-1.6-14.6-2.4-29.3-5.1-43.6c-3-15.8-7.1-31.5-12.2-46.8c-3.4-10.3-9.2-19.9-14.2-29.7
		c-9.1-18-21-34.2-34.4-49.2c-15-16.7-31.9-31.1-50.7-43.3c-16.1-10.5-33.2-19-51.2-25.5c-15.1-5.4-30.6-9.9-46.7-11.6
		c-10.9-1.1-21.7-2.7-32.6-3.2c-9.6-0.4-19.2,0.4-28.8,1.1c-7.5,0.5-15,0.9-22.3,2.6c-14,3.2-27.8,7.2-41.6,10.9
		c-3.1,0.8-6.4,1.4-9.3,2.7c-5.1,2.2-9.9,5-15,7.4c-3.3,1.6-6.7,2.8-9.9,4.5c-2.1,1.1-4.2,2.5-5.9,4.2c-2.6,2.7-7.3,1.5-9.3,5.3
		c-0.1,0.3-1.3-0.1-1.7,0.2c-1.2,0.7-2.4,1.5-3.5,2.4c-0.7,0.6-1.2,1.5-2,2c-3.8,2.5-8,4.6-11.5,7.5c-5.9,4.9-11.5,10.3-17.1,15.6
		c-21.8,20.3-40,43.4-53.5,70c-7.4,14.6-13.7,29.7-18.4,45.6c-5.3,17.7-8.6,35.7-9.5,54c-0.8,15.6-0.2,31.3,1.2,46.9
		c2.6,27.3,10.6,53.3,22.3,78c11.1,23.5,25.6,44.9,43.4,64c21.4,22.9,46,41.3,74.1,55.2c19.2,9.5,39.4,16.4,60.3,20.7
		c10.5,2.2,21.3,3.3,32.1,4.4c22.7,2.4,45.3,0.4,67.6-4c9-1.7,17.9-4.2,26.7-6.7c6.9-2,13.7-4.4,20.4-6.9c3.2-1.2,6.2-2.9,9.3-4.3
		c3.3-1.5,6.9-2.4,9.9-4.3c9.3-5.7,18.3-11.8,27.5-17.6c4-2.6,8.2-4.8,12-7.6c4.2-3.1,8.1-6.7,12.1-10.1c1.6-1.4,3.1-2.9,4.8-4.3
		c3.4-3,7.2-5.6,10.3-9c4.4-4.9,8.3-10.3,12.5-15.3c26.4-31.6,44-67.4,52.9-107.5C630.2,417.5,632.2,399.4,632.3,381.1z"/>
	<path class="st1" d="M387.6,141.4c10.3,1.2,20,2,29.6,3.4c38.1,5.6,72.4,20.7,103.6,43c3.5,2.5,6.8,5.3,10,8.1c1,0.9,2,2.6,2,3.9
		c0.1,37.5,0.1,75,0.1,113.3c-3.9-5.9-7.3-11.3-11-16.6c-17.6-25.6-39.2-47.2-64.7-65c-1.5-1-3-2.1-4.5-3.1
		c-3.8-2.6-4.4-2.5-6.9,1.5c-0.3,0.4-0.4,0.9-0.7,1.3c-5.4,8-5.4,8,2.3,13.3c24.7,17.2,45.6,38.2,62.5,63.1
		c8.6,12.7,15.9,26.1,21.8,40.3c0.7,1.5,1,3.3,1,5c0.1,15.1,0,30.1,0,45.2c0,0.3-0.1,0.6-0.3,1.2c-3.8-5.7-7.4-11.2-11.1-16.6
		c-13.1-19.4-29-36.3-47-51.1c-7.2-5.9-14.9-11.2-22.3-16.8c-2.5-1.9-4.3-1.7-6,1.1c-1.6,2.8-3.6,5.3-5.1,8.1
		c-0.4,0.8,0.1,2.9,0.8,3.4c27.8,18.4,51.2,41.4,69.4,69.2c7.9,12,13.8,25.4,20.4,38.2c0.7,1.4,0.9,3.1,0.9,4.7
		c0.1,15.4,0,30.8,0,47c-4-6.1-7.6-11.7-11.4-17.2c-13.8-20-30.2-37.6-49.1-52.8c-6.5-5.2-13.4-9.9-20-14.9c-2.4-1.8-4.3-2-6,1
		c-1.5,2.7-3.4,5.1-5,7.7c-0.9,1.5-1.3,2.7,0.8,4.1c20.4,13.4,38.4,29.5,54,48.3c14.8,17.8,26.7,37.4,35.7,58.8
		c0.6,1.4,0.9,3.1,0.9,4.7c0.1,12.1,0.1,24.2,0,36.3c0,0.8-0.3,1.6-0.4,2.2c-8.4,0.7-9.5-6.9-12.8-11.4
		c-13.2-17.9-28.1-34.3-45.3-48.3c-7.1-5.8-14.7-11-22-16.6c-2.7-2.1-4.6-1.7-6.2,1.3c-0.9,1.7-2,3.4-3.1,5c-3.3,5-3.3,4.9,1.4,8.1
		c23.8,16.2,44.4,35.7,61.1,59.1c2.9,4.1,5.8,8.2,8.6,12.3c1.4,2.1,1.6,3.5-1.1,5.2c-18.3,12.1-37.7,21.7-58.4,28.6
		c-19,6.4-38.5,10.2-58.5,11.4c-2.7,0.2-5.3,0.6-8.6,1c0-46.8,0-93.2,0-139.8c0.3,0.5,0.8,1,1.1,1.6c12.8,22.3,29,41.9,48.1,58.9
		c10.1,9,21.3,16.8,32,25.2c1.7,1.3,2.9,1.3,4.1-0.8c1.5-2.6,3.3-5.1,5.1-7.6c1.9-2.6,1.1-4.1-1.3-6c-11.5-9.1-23.3-17.9-34.2-27.7
		c-13.4-12.1-24.3-26.5-34.7-41.4c-8-11.6-13.7-24.3-19.5-36.9c-0.6-1.3-0.8-2.9-0.9-4.3c-0.1-15.7,0-31.3,0-47.3
		c4.7,6.9,9,13.7,13.7,20.2c18.4,25.7,41,47.1,67.2,64.7c2.2,1.5,3.5,1.7,4.9-0.8c1.5-2.7,3.3-5.2,5-7.7c1.7-2.4,0.9-3.9-1.3-5.4
		c-18.6-12.5-35.4-27.2-50-44.2c-16.1-18.6-28.7-39.3-38.5-61.7c-0.5-1.2-0.9-2.6-0.9-3.9c-0.1-15.9,0-31.8,0-48
		c4.7,7,9,13.7,13.7,20.3c15.7,22,34.8,40.9,56.4,57.1c3.7,2.8,7.6,5.3,11.4,8c1.6,1.1,2.7,1.2,3.8-0.7c1.5-2.6,3.3-5.2,5.1-7.6
		c2-2.7,1.3-4.3-1.3-6.3c-8.8-6.5-17.8-12.9-26.1-20.1c-19.2-16.6-35.3-35.9-48-57.9c-5.4-9.4-10.5-19.1-14.7-29
		c-1.7-3.9-1-9-1-13.5c0.1-11.2,0.4-22.4,0.7-33.6c0-1,0-2,0-3.7c2.5,4,4.7,7.4,6.9,10.8c17.9,27.1,39.9,50.3,66.4,69.1
		c2.8,2,5.5,4.1,8.5,5.8c0.8,0.5,2.8,0.1,3.4-0.6c2.1-2.6,3.7-5.5,5.6-8.2c1.8-2.6,0.8-4-1.4-5.7c-10.4-8.1-21.2-15.9-31-24.7
		c-23.6-21.2-41.7-46.7-55-75.5c-2.3-5-3.6-10-3.5-15.6C387.8,164.8,387.6,153.6,387.6,141.4z"/>
	<path class="st1" d="M370.9,141.5c0,7.5,0,14,0,20.5c0,1.2-0.2,2.5,0,3.7c2.2,14.9-3.7,27.6-10.5,40.1
		c-19.3,35.2-45.8,63.8-79,86.1c-2.4,1.6-3.2,3.1-1.2,5.6c2,2.5,3.7,5.2,5.3,7.9c1.1,1.8,2.1,2,3.8,0.8c22.4-15,42.4-32.6,59-53.8
		c7.9-10.1,15.2-20.6,22.6-30.8c0,15.2,0.5,30.9-0.3,46.5c-0.2,5.1-3.2,10.2-5.5,15c-12.1,25.2-28.5,47.5-48.5,67
		c-10.7,10.4-22.3,19.9-34.8,28.1c-2.9,1.9-3.6,3.6-1.2,6.4c1.9,2.2,3.4,4.8,4.8,7.4c1.1,2,2.1,2,3.8,0.9
		c22.4-15,42.4-32.6,59.1-53.8c7.9-10.1,15.2-20.7,22.6-30.9c0,7,0,14.4,0,21.9c0,5.7-0.5,11.4,0.1,17c1.1,10.2-3.7,18.4-8,26.7
		c-14.6,28.8-34.4,53.6-59.2,74.3c-7.2,6-14.9,11.4-22.6,17c-2.4,1.7-3,3.2-1.1,5.7c1.6,2.1,3.1,4.4,4.4,6.8
		c1.5,2.6,2.8,3.2,5.7,1.3c21.9-14.8,41.4-32.3,57.9-52.9c8.1-10.1,15.3-20.9,22.7-31.1c0,15.3,0.4,31.1-0.3,46.8
		c-0.2,5-3.1,10-5.4,14.7c-12.3,25.1-28.2,47.8-48.7,66.9c-10.8,10.1-22.8,18.9-34.5,28c-3.7,2.9-3.9,2.9-1.3,6.9
		c1.5,2.3,3.2,4.4,4.4,6.8c1.3,2.6,2.6,2.2,4.6,0.9c23.5-15.7,44.1-34.7,61.6-56.9c6.9-8.9,13-18.4,19.6-27.8c0,5.9,0,11.8,0,17.7
		c0,38.8,0,77.5,0,116.3c0,5.1,0,5-5.1,4.4c-9.5-1.2-19.1-2-28.6-3.5c-14.1-2.1-27.8-6-41.2-11c-17.9-6.8-34.9-15.2-50.7-26
		c-2.6-1.8-2.6-3.1-1.2-5.3c11.6-17.8,24.9-34.4,40.9-48.5c9.8-8.6,20.4-16.4,30.8-24.3c2.2-1.7,2.1-2.9,0.9-4.7
		c-1.6-2.5-3.4-4.8-4.8-7.4c-1.6-2.8-3.5-2.8-5.7-1.1c-7.8,5.9-15.9,11.5-23.4,17.7c-17,14.1-31.8,30.4-44.7,48.3
		c-3,4.2-5.8,8.5-8.7,13c-2.6-1-3.9-2.6-3.9-5.7c0.1-11.5-0.5-23,0.3-34.4c0.4-5.4,3-10.8,5.4-15.8c15.4-32.4,37.4-59.7,65.3-82.3
		c6.3-5.1,12.8-9.8,19.5-14.4c2.2-1.5,2-2.7,0.9-4.4c-1.6-2.6-3.5-5.1-5-7.7c-1.5-2.6-3.3-2.7-5.4-1.1c-9,6.8-18.2,13.3-26.8,20.6
		c-20.9,17.9-38.4,38.6-52.3,62.4c-0.3,0.5-0.7,0.9-1.7,2c0-2,0-3.2,0-4.4c0-11.6,0.4-23.2-0.2-34.8c-0.4-8.3,2.2-15.4,5.6-22.5
		c14.8-30.6,35.2-56.8,61-78.7c7.5-6.4,15.6-12.2,23.7-17.9c2.3-1.6,2-2.9,0.9-4.6c-1.6-2.6-3.4-5.1-5-7.7c-1.4-2.5-3.2-2.5-5.2-1
		c-10.5,8.1-21.3,15.8-31.2,24.5c-19.2,17-35.2,36.6-48.2,58.8c-0.2,0.4-0.6,0.7-1.3,1.5c-0.1-1.6-0.2-2.7-0.2-3.7
		c0-11.6,0.4-23.2-0.2-34.8c-0.4-8.5,2.1-15.9,5.7-23.2c15.7-32.3,37.5-59.6,65.4-82.2c6.4-5.1,13.2-9.7,19.8-14.6
		c0.6-0.4,1.1-1,1.9-1.7c-2.3-3.7-4.6-7.4-7-11.1c-1.4-2.2-3.3-1.3-4.8-0.1c-10.2,7.9-20.7,15.4-30.4,23.8c-18.6,16.2-34,35.2-47,56
		c-0.9,1.4-1.7,2.9-3,5.2c-0.2-1.7-0.4-2.6-0.4-3.4c0-36.2,0-72.3,0-108.5c0-2.4,0.6-4.1,2.6-5.7c16.3-13.2,33.8-24.4,53.1-32.6
		c11.3-4.7,22.7-9.3,34.4-12.6c10.2-2.9,20.9-4.4,31.4-6.1C354.8,142.7,362.6,142.3,370.9,141.5z"/>
	<path class="st1" d="M549.4,484.4c0-4.6,0-10.4,0-16.1c0-6.5,0.4-13.1-0.1-19.6c-0.8-9.5,2.2-17.7,6.2-26
		c14.1-29,33.8-53.6,57.6-75c0.6-0.6,1.4-0.9,2.4-1.5c0.4,0.8,1,1.5,1,2.3c0.8,11.2,2,22.3,2.1,33.5c0.1,9.1-1.2,18.2-2.1,27.2
		c-0.1,1-1,2.2-1.8,2.8c-13.2,10.5-25.8,21.6-36.5,34.7C568.2,459.1,558.8,472.2,549.4,484.4z"/>
	<path class="st1" d="M208.9,484.9c-7-9.8-13.8-19.5-20.9-29c-11.9-15.9-26.3-29.5-41.9-41.6c-4.1-3.2-4.6-7-5.1-11.3
		c-2.1-17.9-0.6-35.7,0.8-53.5c0.1-1.2,0.6-2.3,1-3.7c11.1,9,20.6,19,29.5,29.6c14.3,17.1,26.1,35.8,34.8,56.3
		c0.9,2,1.9,4.2,1.9,6.3C209,453.6,208.9,469.3,208.9,484.9z"/>
	<path class="st1" d="M595.2,278.7c2.1,4.4,4.4,8.1,5.9,12.2c3,8.1,5.6,16.3,8.2,24.4c1.1,3.3,2.2,6.5,2.8,9.9
		c0.2,1.3-1.1,3.1-2.2,4.1c-10.2,9.9-21.3,19-30.6,29.7c-10.9,12.4-20.2,26-29.7,39.9c-0.1-1-0.1-2-0.1-3c0-13.5-0.3-26.9,0.1-40.4
		c0.1-4.6,1.5-9.5,3.3-13.7c5.8-13.2,13-25.7,21.5-37.5c4.9-6.7,9.9-13.4,15-19.9C590.8,282.5,592.8,281,595.2,278.7z"/>
	<path class="st1" d="M162.8,278.1c11.6,12.3,21.5,25,29.6,39c5.3,9.1,9.8,18.6,14.5,28c1,1.9,1.9,4.2,1.9,6.3
		c0.2,15.7,0.1,31.3,0.1,47.3c-5.6-8.1-10.8-16-16.4-23.6c-12.8-17.2-27.6-32.5-44.4-45.9c-1.9-1.5-2.2-2.8-1.3-5.3
		c2.9-8.6,5.1-17.4,8.1-26C157.1,291.3,160,284.9,162.8,278.1z"/>
	<path class="st1" d="M208.9,548.1c-19-16.8-51.1-60.2-62.6-113.2c6.2,6.1,11.8,11.5,17.2,17.1c12.8,13.3,23.4,28.3,32.5,44.2
		c4.7,8.2,8.2,16.9,12.2,25.5c0.4,0.8,0.6,1.7,0.6,2.5C208.9,532.2,208.9,540.1,208.9,548.1z"/>
	<path class="st1" d="M612.3,435.3c-10.5,44-31.4,81.3-62,113.1c-0.5-0.1-0.9-0.2-1.4-0.2c0.6-9.5-0.3-19.4,2.4-28.3
		c3.1-10.2,9.2-19.7,14.6-29.1c10.1-17.3,22.8-32.7,37.1-46.8C605.8,441.1,608.8,438.5,612.3,435.3z"/>
	<path class="st1" d="M549.6,212.6c5,5.6,9.8,10.2,13.7,15.4c7.6,10.2,14.8,20.7,22.1,31.1c1.8,2.6,1.8,4.6-0.7,7.2
		c-13.1,13.5-24.3,28.5-34,44.6c-0.3,0.5-0.6,1-1.2,1.8C549.6,279.3,549.6,246.5,549.6,212.6z"/>
	<path class="st1" d="M208.8,214.1c0,32.5,0,65,0,97.8c-4.6-6.8-8.9-13.5-13.7-19.8c-7-9-14.3-17.7-21.7-26.3
		c-1.6-1.9-2.3-3.2-0.8-5.4c7-10.1,13.8-20.5,21.1-30.5c4.2-5.8,9.4-10.9,14.2-16.3C208.1,213.8,208.5,213.9,208.8,214.1z"/>
</g>
<g>
	<path d="M1025.9,263.3c1,1.8,1.8,3.5,2.5,5.2c0.7,1.7,1.3,3.4,1.6,5.2c-4.1,2-8.9,3.6-14.6,4.8c-5.6,1.1-11.6,1.7-17.8,1.7
		c-8.8,0-16.8-1.4-24-4.3c-7.3-2.9-13.5-7.1-18.6-12.6c-5.2-5.5-9.2-12.4-12.1-20.5c-2.9-8.2-4.3-17.5-4.3-28.1
		c0-10.8,1.4-20.4,4.2-28.9c2.8-8.5,6.8-15.6,11.9-21.4c5.1-5.8,11.3-10.3,18.5-13.3c7.3-3.1,15.4-4.6,24.4-4.6
		c7.6,0,13.9,0.5,18.9,1.6s8.7,2,11,2.7c-0.2,2.2-0.6,4-1,5.4c-0.4,1.4-1.1,3.2-1.9,5.2c-1.6-0.5-3.1-1-4.8-1.4
		c-1.6-0.5-3.5-0.9-5.5-1.3c-2-0.4-4.4-0.7-7.1-0.9c-2.7-0.2-5.9-0.4-9.4-0.4c-7.1,0-13.4,1.3-19.1,3.9c-5.6,2.6-10.4,6.3-14.4,11.3
		c-4,4.9-7,10.9-9.2,18c-2.2,7.1-3.2,15.1-3.2,24.1c0,9.2,1.2,17.3,3.6,24.1c2.4,6.8,5.7,12.5,10,17c4.3,4.5,9.2,7.8,14.9,10
		c5.7,2.2,11.8,3.2,18.4,3.2c5.6,0,10.8-0.5,15.4-1.6C1018.9,266.4,1022.8,265,1025.9,263.3z"/>
	<path d="M1085.1,148.7c0.8-0.1,2-0.2,3.4-0.3c1.4-0.1,2.8-0.1,4-0.1c1.3,0,2.7,0,4,0.1c1.4,0.1,2.5,0.2,3.3,0.3l43.2,129.4
		c-0.7,0.1-1.7,0.2-3.1,0.3c-1.3,0.1-2.6,0.1-3.8,0.1c-1.1,0-2.2,0-3.4-0.1c-1.2-0.1-2.2-0.2-3.1-0.3l-10.8-32.9h-53.3l-10.3,32.9
		c-1,0.1-2.1,0.2-3.3,0.3c-1.3,0.1-2.4,0.1-3.5,0.1c-1.2,0-2.4,0-3.7-0.1c-1.3-0.1-2.3-0.2-3-0.3L1085.1,148.7z M1115.3,233.6
		l-23.2-72l-22.9,72H1115.3z"/>
	<path d="M1164.8,148.1c2.6-0.2,4.9-0.5,6.9-0.6c2-0.2,3.9-0.4,5.8-0.5c1.9-0.2,3.8-0.3,5.9-0.4c2-0.1,4.4-0.1,7.2-0.1
		c5.8,0,11.4,0.6,17,1.8c5.6,1.2,10.6,3.3,15,6.2c4.4,2.9,8,6.9,10.7,11.9c2.7,5,4.1,11.3,4.1,18.8c0,4.7-0.8,8.9-2.5,12.8
		c-1.7,3.8-3.9,7.3-6.6,10.4c-2.7,3.1-5.8,5.7-9.4,7.9c-3.5,2.2-7.2,4.1-10.9,5.5l-1.4,0.5l41.2,55.8c-1.2,0.2-2.4,0.4-3.6,0.4
		c-1.2,0-2.4,0-3.6,0c-1.2,0-2.4,0-3.5,0c-1.1,0-2.3-0.1-3.5-0.4l-45.4-59.9v-0.7l4-1.1c4.1-1.1,8-2.5,11.9-4.2
		c3.8-1.7,7.2-3.8,10.2-6.3c2.9-2.5,5.3-5.4,7.1-8.7c1.8-3.4,2.7-7.3,2.7-11.9c0-9.4-2.9-16.4-8.6-21.1c-5.8-4.7-13.6-7-23.4-7
		c-2.5,0-4.9,0.1-7,0.2c-2.2,0.1-4.7,0.4-7.7,0.7v120.1c-0.8,0.1-1.9,0.2-3.1,0.3c-1.2,0.1-2.3,0.1-3.2,0.1c-1.1,0-2.2,0-3.2-0.1
		c-1.1-0.1-2-0.2-2.9-0.3V148.1z"/>
	<path d="M1270.5,148.7c0.7-0.1,1.6-0.2,2.8-0.3c1.1-0.1,2.3-0.1,3.5-0.1c1.1,0,2.2,0,3.2,0.1c1.1,0.1,2,0.2,2.9,0.3v118.1h55.3
		c0.1,0.7,0.2,1.7,0.3,2.8c0.1,1.1,0.1,2.1,0.1,3c0,1,0,2-0.1,3c-0.1,1-0.2,1.9-0.3,2.6h-67.7V148.7z"/>
	<path d="M1425.1,159.8h-34.7c-0.1-0.7-0.2-1.6-0.3-2.6c-0.1-1-0.1-2-0.1-3c0-0.8,0-1.8,0.1-2.9c0.1-1.1,0.1-2,0.3-2.7h81.9
		c0.1,0.7,0.2,1.6,0.3,2.5c0.1,1,0.1,1.9,0.1,2.9c0,0.8,0,1.8-0.1,3c-0.1,1.1-0.2,2.1-0.3,2.8h-34.7v118.3c-0.8,0.1-1.8,0.2-2.9,0.3
		c-1.1,0.1-2.2,0.1-3.2,0.1c-1.2,0-2.4,0-3.5-0.1c-1.1-0.1-2.1-0.2-2.8-0.3V159.8z"/>
	<path d="M1494.1,148.1c2.6-0.2,5-0.5,6.9-0.6c2-0.2,3.9-0.4,5.8-0.5c1.9-0.2,3.8-0.3,5.8-0.4c2-0.1,4.4-0.1,7.2-0.1
		c5.8,0,11.4,0.6,17,1.8c5.6,1.2,10.6,3.3,15,6.2c4.4,2.9,8,6.9,10.7,11.9c2.7,5,4,11.3,4,18.8c0,4.7-0.8,8.9-2.5,12.8
		c-1.7,3.8-3.9,7.3-6.6,10.4s-5.8,5.7-9.4,7.9c-3.5,2.2-7.2,4.1-10.9,5.5l-1.4,0.5l41.2,55.8c-1.2,0.2-2.4,0.4-3.6,0.4
		c-1.2,0-2.4,0-3.6,0c-1.2,0-2.4,0-3.5,0c-1.1,0-2.3-0.1-3.5-0.4l-45.4-59.9v-0.7l4-1.1c4.1-1.1,8-2.5,11.9-4.2
		c3.8-1.7,7.2-3.8,10.2-6.3c2.9-2.5,5.3-5.4,7.1-8.7c1.8-3.4,2.7-7.3,2.7-11.9c0-9.4-2.9-16.4-8.6-21.1s-13.6-7-23.4-7
		c-2.5,0-4.9,0.1-7,0.2c-2.2,0.1-4.7,0.4-7.7,0.7v120.1c-0.8,0.1-1.9,0.2-3.1,0.3c-1.2,0.1-2.3,0.1-3.2,0.1c-1.1,0-2.2,0-3.2-0.1
		c-1.1-0.1-2-0.2-2.9-0.3V148.1z"/>
	<path d="M1623.8,230l-41.6-81.4c0.7-0.1,1.7-0.2,3.1-0.3c1.3-0.1,2.6-0.1,3.8-0.1c1.1,0,2.4,0,3.9,0.1c1.5,0.1,2.7,0.2,3.5,0.3
		l33.8,68.4l33.3-68.4c1-0.1,2-0.2,3.2-0.3c1.1-0.1,2.3-0.1,3.3-0.1c1.2,0,2.5,0,3.8,0.1c1.3,0.1,2.3,0.2,3.1,0.3l-40.7,81.4v48.1
		c-0.8,0.1-1.8,0.2-2.9,0.3c-1.1,0.1-2.2,0.1-3.2,0.1c-1.2,0-2.4,0-3.5-0.1c-1.1-0.1-2.1-0.2-2.8-0.3V230z"/>
	<path d="M1771.8,211.3c0.8-0.1,1.9-0.2,3.1-0.3c1.2-0.1,2.3-0.1,3.2-0.1c1.1,0,2.2,0,3.2,0.1c1.1,0.1,2,0.2,2.9,0.3v63
		c-2,1.1-4.5,2-7.3,2.7c-2.8,0.7-5.8,1.3-9,1.8c-3.2,0.5-6.5,0.8-9.8,1.1c-3.4,0.2-6.7,0.4-9.9,0.4c-8.6,0-16.7-1.4-24.1-4.1
		c-7.4-2.8-13.9-6.9-19.3-12.4c-5.4-5.5-9.6-12.4-12.7-20.5c-3.1-8.2-4.6-17.6-4.6-28.4c0-10.8,1.5-20.4,4.5-28.9
		c3-8.5,7.2-15.6,12.5-21.4c5.3-5.8,11.6-10.3,18.9-13.3c7.3-3.1,15.1-4.6,23.7-4.6c7.6,0,13.9,0.5,18.9,1.5c5,1,9.1,2,12.2,3
		c-0.2,2.2-0.6,4-1,5.6c-0.4,1.6-1.1,3.4-1.9,5.4c-2.6-1-6.2-1.9-10.6-3c-4.4-1-10.1-1.5-16.9-1.5s-13.1,1.3-18.9,3.9
		c-5.8,2.6-10.7,6.3-14.8,11.3c-4.1,4.9-7.4,10.9-9.7,18c-2.3,7.1-3.5,15.1-3.5,24.1c0,9.2,1.3,17.3,3.8,24
		c2.5,6.8,5.9,12.4,10.3,16.8c4.3,4.4,9.4,7.7,15.2,9.9c5.8,2.2,12,3.2,18.6,3.2c5.4,0,9.9-0.2,13.6-0.6c3.7-0.4,6.8-1.1,9.5-2.1
		V211.3z"/>
	<path d="M1896,211.3c0.8-0.1,1.9-0.2,3.1-0.3c1.2-0.1,2.3-0.1,3.2-0.1c1.1,0,2.2,0,3.2,0.1c1.1,0.1,2,0.2,2.9,0.3v63
		c-2,1.1-4.5,2-7.3,2.7c-2.8,0.7-5.8,1.3-9,1.8c-3.2,0.5-6.5,0.8-9.8,1.1c-3.4,0.2-6.7,0.4-9.9,0.4c-8.6,0-16.7-1.4-24.1-4.1
		c-7.4-2.8-13.9-6.9-19.3-12.4c-5.4-5.5-9.6-12.4-12.7-20.5c-3.1-8.2-4.6-17.6-4.6-28.4c0-10.8,1.5-20.4,4.5-28.9
		c3-8.5,7.2-15.6,12.5-21.4c5.3-5.8,11.6-10.3,18.9-13.3c7.3-3.1,15.1-4.6,23.7-4.6c7.6,0,13.9,0.5,18.9,1.5c5,1,9.1,2,12.2,3
		c-0.2,2.2-0.6,4-1,5.6c-0.4,1.6-1.1,3.4-1.9,5.4c-2.6-1-6.2-1.9-10.6-3c-4.4-1-10.1-1.5-16.9-1.5s-13.1,1.3-18.9,3.9
		c-5.8,2.6-10.7,6.3-14.8,11.3c-4.1,4.9-7.4,10.9-9.7,18c-2.3,7.1-3.5,15.1-3.5,24.1c0,9.2,1.3,17.3,3.8,24
		c2.5,6.8,5.9,12.4,10.3,16.8c4.3,4.4,9.4,7.7,15.2,9.9c5.8,2.2,12,3.2,18.6,3.2c5.4,0,9.9-0.2,13.6-0.6c3.7-0.4,6.8-1.1,9.5-2.1
		V211.3z"/>
	<path d="M1942.4,148.7h69.3c0.1,0.7,0.2,1.6,0.3,2.6c0.1,1,0.1,2,0.1,3c0,0.8,0,1.8-0.1,3c-0.1,1.1-0.2,2.1-0.3,2.8h-56.9v43.7
		h45.7c0.1,0.7,0.2,1.6,0.3,2.6c0.1,1,0.1,2,0.1,3c0,0.8,0,1.8-0.1,3c-0.1,1.1-0.2,2.1-0.3,2.8h-45.7v51.7h58.5
		c0.1,0.7,0.2,1.6,0.3,2.6c0.1,1,0.1,2,0.1,3c0,0.8,0,1.8-0.1,3c-0.1,1.1-0.2,2.1-0.3,2.8h-70.9V148.7z"/>
	<path d="M2039.6,148.1c2.6-0.2,5-0.5,6.9-0.6c2-0.2,3.9-0.4,5.8-0.5c1.9-0.2,3.8-0.3,5.8-0.4c2-0.1,4.4-0.1,7.2-0.1
		c5.8,0,11.4,0.6,17,1.8c5.6,1.2,10.6,3.3,15,6.2c4.4,2.9,8,6.9,10.7,11.9c2.7,5,4,11.3,4,18.8c0,4.7-0.8,8.9-2.5,12.8
		c-1.7,3.8-3.9,7.3-6.6,10.4s-5.8,5.7-9.4,7.9c-3.5,2.2-7.2,4.1-10.9,5.5l-1.4,0.5l41.2,55.8c-1.2,0.2-2.4,0.4-3.6,0.4
		c-1.2,0-2.4,0-3.6,0c-1.2,0-2.4,0-3.5,0c-1.1,0-2.3-0.1-3.5-0.4l-45.4-59.9v-0.7l4-1.1c4.1-1.1,8-2.5,11.9-4.2
		c3.8-1.7,7.2-3.8,10.2-6.3c2.9-2.5,5.3-5.4,7.1-8.7c1.8-3.4,2.7-7.3,2.7-11.9c0-9.4-2.9-16.4-8.6-21.1s-13.6-7-23.4-7
		c-2.5,0-4.9,0.1-7,0.2c-2.2,0.1-4.7,0.4-7.7,0.7v120.1c-0.8,0.1-1.9,0.2-3.1,0.3c-1.2,0.1-2.3,0.1-3.2,0.1c-1.1,0-2.2,0-3.2-0.1
		c-1.1-0.1-2-0.2-2.9-0.3V148.1z"/>
	<path d="M2140.4,263.7c1.7,0.5,3.4,1,5.2,1.6c1.8,0.6,3.8,1.1,6,1.6c2.2,0.5,4.7,0.9,7.5,1.3c2.8,0.4,5.9,0.5,9.5,0.5
		c5.8,0,10.7-0.7,14.8-2.1c4.1-1.4,7.6-3.2,10.3-5.6c2.7-2.3,4.7-5.1,6-8.3c1.3-3.2,2-6.6,2-10.4c0-3.6-0.5-6.7-1.4-9.3
		c-0.9-2.6-2.5-4.9-4.7-7.1c-2.2-2.2-5.3-4.2-9.2-6.2c-3.9-2-8.8-4.1-14.7-6.4c-4.2-1.6-8.2-3.2-12-5c-3.8-1.8-7.1-4-10-6.6
		c-2.9-2.6-5.2-5.7-6.8-9.3c-1.7-3.6-2.5-8.1-2.5-13.5c0-9.7,3.5-17.6,10.5-23.6c7-6,17.2-9,30.7-9c2.6,0,5.3,0.1,8,0.4
		c2.7,0.2,5.2,0.5,7.6,0.9c2.3,0.4,4.5,0.8,6.5,1.3c2,0.5,3.6,0.9,4.8,1.3c-0.2,1.8-0.6,3.6-1,5.5c-0.4,1.9-0.9,3.6-1.5,5.3
		c-2.9-1-6.6-1.8-11.1-2.6c-4.5-0.8-9-1.2-13.4-1.2c-10,0-17.1,2-21.4,6.1c-4.3,4.1-6.5,9.2-6.5,15.5c0,3.2,0.7,6.1,2,8.5
		c1.3,2.4,3.1,4.5,5.5,6.3c2.3,1.8,5.1,3.5,8.4,4.9c3.2,1.5,6.7,3,10.4,4.4c5,2,9.7,4.1,14.1,6.3c4.4,2.2,8.1,4.7,11.3,7.6
		c3.1,2.9,5.6,6.3,7.4,10.2c1.8,3.9,2.7,8.6,2.7,14.1c0,6.2-1.1,11.8-3.3,16.6c-2.2,4.9-5.4,8.9-9.5,12.2c-4.1,3.3-9.1,5.8-14.9,7.6
		c-5.9,1.7-12.5,2.6-19.8,2.6c-7.1,0-13-0.5-17.6-1.5c-4.7-1-9.1-2.2-13.1-3.5c0.2-1.8,0.7-3.7,1.3-5.9
		C2139,267.3,2139.7,265.4,2140.4,263.7z"/>
	<path d="M940.4,443.7c1.7,0.5,3.4,1,5.2,1.6c1.8,0.6,3.8,1.1,6,1.6c2.2,0.5,4.7,0.9,7.5,1.3c2.8,0.4,5.9,0.5,9.5,0.5
		c5.8,0,10.7-0.7,14.9-2.1c4.1-1.4,7.6-3.2,10.3-5.6c2.7-2.3,4.7-5.1,6-8.3c1.3-3.2,2-6.6,2-10.4c0-3.6-0.5-6.7-1.4-9.3
		c-0.9-2.6-2.5-4.9-4.7-7.1c-2.2-2.2-5.3-4.2-9.2-6.2c-3.9-2-8.8-4.1-14.7-6.4c-4.2-1.6-8.2-3.2-12-5c-3.8-1.8-7.1-4-10-6.6
		c-2.9-2.6-5.2-5.7-6.8-9.3c-1.7-3.6-2.5-8.1-2.5-13.5c0-9.7,3.5-17.6,10.5-23.6c7-6,17.2-9,30.7-9c2.6,0,5.3,0.1,8,0.4
		c2.7,0.2,5.2,0.5,7.6,0.9c2.3,0.4,4.5,0.8,6.5,1.3c2,0.5,3.6,0.9,4.8,1.3c-0.2,1.8-0.6,3.6-1,5.5c-0.4,1.9-0.9,3.6-1.5,5.3
		c-2.9-1-6.6-1.8-11.1-2.6c-4.5-0.8-9-1.2-13.4-1.2c-10,0-17.1,2-21.4,6.1c-4.3,4.1-6.5,9.2-6.5,15.5c0,3.2,0.7,6.1,2,8.5
		c1.3,2.4,3.1,4.5,5.5,6.3c2.3,1.8,5.1,3.5,8.4,4.9c3.2,1.5,6.7,3,10.4,4.4c5,2,9.7,4.1,14.1,6.3c4.4,2.2,8.1,4.7,11.3,7.6
		c3.1,2.9,5.6,6.3,7.4,10.2c1.8,3.9,2.7,8.6,2.7,14.1c0,6.2-1.1,11.8-3.3,16.6c-2.2,4.9-5.4,8.9-9.4,12.2c-4.1,3.3-9.1,5.8-14.9,7.6
		c-5.9,1.7-12.5,2.6-19.8,2.6c-7.1,0-13-0.5-17.6-1.5c-4.7-1-9.1-2.2-13.1-3.5c0.2-1.8,0.7-3.7,1.3-5.9
		C939,447.3,939.7,445.4,940.4,443.7z"/>
	<path d="M1062.8,339.8H1028c-0.1-0.7-0.2-1.6-0.3-2.6c-0.1-1-0.1-2-0.1-3c0-0.8,0-1.8,0.1-2.9c0.1-1.1,0.1-2,0.3-2.7h81.9
		c0.1,0.7,0.2,1.6,0.3,2.5c0.1,1,0.1,1.9,0.1,2.9c0,0.8,0,1.8-0.1,3c-0.1,1.1-0.2,2.1-0.3,2.8h-34.7v118.3c-0.8,0.1-1.8,0.2-2.9,0.3
		c-1.1,0.1-2.2,0.1-3.2,0.1c-1.2,0-2.4,0-3.5-0.1c-1.1-0.1-2.1-0.2-2.8-0.3V339.8z"/>
	<path d="M1131.7,328.7c0.8-0.1,1.9-0.2,3.1-0.3c1.2-0.1,2.3-0.1,3.2-0.1c1.1,0,2.2,0,3.2,0.1c1.1,0.1,2,0.2,2.9,0.3v129.4
		c-0.8,0.1-1.8,0.2-2.9,0.3c-1.1,0.1-2.2,0.1-3.2,0.1c-1.2,0-2.4,0-3.5-0.1c-1.1-0.1-2.1-0.2-2.8-0.3V328.7z"/>
	<path d="M1180.5,328.7h63.5c0.1,0.7,0.2,1.6,0.3,2.6c0.1,1,0.1,2,0.1,3c0,0.8,0,1.8-0.1,3c-0.1,1.1-0.2,2.1-0.3,2.8h-51.1v43.7
		h44.3c0.1,0.7,0.2,1.6,0.3,2.6c0.1,1,0.1,2,0.1,3c0,0.8,0,1.8-0.1,3c-0.1,1.1-0.2,2.1-0.3,2.8h-44.3v63c-0.8,0.1-1.8,0.2-2.9,0.3
		c-1.1,0.1-2.2,0.1-3.2,0.1c-1.2,0-2.4,0-3.5-0.1c-1.1-0.1-2.1-0.2-2.8-0.3V328.7z"/>
	<path d="M1291,339.8h-34.7c-0.1-0.7-0.2-1.6-0.3-2.6c-0.1-1-0.1-2-0.1-3c0-0.8,0-1.8,0.1-2.9c0.1-1.1,0.1-2,0.3-2.7h81.9
		c0.1,0.7,0.2,1.6,0.3,2.5c0.1,1,0.1,1.9,0.1,2.9c0,0.8,0,1.8-0.1,3c-0.1,1.1-0.2,2.1-0.3,2.8h-34.7v118.3c-0.8,0.1-1.8,0.2-2.9,0.3
		c-1.1,0.1-2.2,0.1-3.2,0.1c-1.2,0-2.4,0-3.5-0.1c-1.1-0.1-2.1-0.2-2.8-0.3V339.8z"/>
	<path d="M1360,328.7h69.3c0.1,0.7,0.2,1.6,0.3,2.6c0.1,1,0.1,2,0.1,3c0,0.8,0,1.8-0.1,3c-0.1,1.1-0.2,2.1-0.3,2.8h-56.9v43.7h45.7
		c0.1,0.7,0.2,1.6,0.3,2.6c0.1,1,0.1,2,0.1,3c0,0.8,0,1.8-0.1,3c-0.1,1.1-0.2,2.1-0.3,2.8h-45.7v51.7h58.5c0.1,0.7,0.2,1.6,0.3,2.6
		c0.1,1,0.1,2,0.1,3c0,0.8,0,1.8-0.1,3c-0.1,1.1-0.2,2.1-0.3,2.8H1360V328.7z"/>
	<path d="M1457.2,328.7c0.7-0.1,1.6-0.2,2.8-0.3c1.1-0.1,2.3-0.1,3.5-0.1c1.1,0,2.2,0,3.2,0.1c1.1,0.1,2,0.2,2.9,0.3v118.1h55.3
		c0.1,0.7,0.2,1.7,0.3,2.8c0.1,1.1,0.1,2.1,0.1,3c0,1,0,2-0.1,3c-0.1,1-0.2,1.9-0.3,2.6h-67.7V328.7z"/>
	<path d="M1541.8,443.7c1.7,0.5,3.4,1,5.2,1.6c1.8,0.6,3.8,1.1,6,1.6c2.2,0.5,4.7,0.9,7.5,1.3c2.8,0.4,5.9,0.5,9.5,0.5
		c5.8,0,10.7-0.7,14.8-2.1c4.1-1.4,7.6-3.2,10.3-5.6c2.7-2.3,4.7-5.1,6-8.3c1.3-3.2,2-6.6,2-10.4c0-3.6-0.5-6.7-1.4-9.3
		c-0.9-2.6-2.5-4.9-4.7-7.1c-2.2-2.2-5.3-4.2-9.2-6.2c-3.9-2-8.8-4.1-14.7-6.4c-4.2-1.6-8.2-3.2-12-5c-3.8-1.8-7.1-4-10-6.6
		c-2.9-2.6-5.2-5.7-6.8-9.3c-1.7-3.6-2.5-8.1-2.5-13.5c0-9.7,3.5-17.6,10.5-23.6c7-6,17.3-9,30.7-9c2.6,0,5.3,0.1,8,0.4
		c2.7,0.2,5.2,0.5,7.6,0.9c2.3,0.4,4.5,0.8,6.5,1.3c2,0.5,3.6,0.9,4.8,1.3c-0.2,1.8-0.6,3.6-1,5.5c-0.4,1.9-0.9,3.6-1.5,5.3
		c-2.9-1-6.6-1.8-11.1-2.6c-4.5-0.8-9-1.2-13.4-1.2c-10,0-17.1,2-21.4,6.1c-4.3,4.1-6.5,9.2-6.5,15.5c0,3.2,0.7,6.1,2,8.5
		c1.3,2.4,3.1,4.5,5.5,6.3c2.3,1.8,5.1,3.5,8.4,4.9c3.2,1.5,6.7,3,10.4,4.4c5,2,9.7,4.1,14.1,6.3c4.4,2.2,8.1,4.7,11.3,7.6
		c3.1,2.9,5.6,6.3,7.4,10.2c1.8,3.9,2.7,8.6,2.7,14.1c0,6.2-1.1,11.8-3.3,16.6s-5.4,8.9-9.4,12.2c-4.1,3.3-9.1,5.8-14.9,7.6
		c-5.9,1.7-12.5,2.6-19.8,2.6c-7.1,0-13-0.5-17.6-1.5s-9.1-2.2-13.1-3.5c0.2-1.8,0.7-3.7,1.3-5.9
		C1540.4,447.3,1541,445.4,1541.8,443.7z"/>
	<path d="M1644,328.7h69.3c0.1,0.7,0.2,1.6,0.3,2.6c0.1,1,0.1,2,0.1,3c0,0.8,0,1.8-0.1,3c-0.1,1.1-0.2,2.1-0.3,2.8h-56.9v43.7h45.7
		c0.1,0.7,0.2,1.6,0.3,2.6c0.1,1,0.1,2,0.1,3c0,0.8,0,1.8-0.1,3c-0.1,1.1-0.2,2.1-0.3,2.8h-45.7v51.7h58.5c0.1,0.7,0.2,1.6,0.3,2.6
		c0.1,1,0.1,2,0.1,3c0,0.8,0,1.8-0.1,3c-0.1,1.1-0.2,2.1-0.3,2.8H1644V328.7z"/>
</g>
<g>
	<path d="M938.4,557h31.4c0.1,0.4,0.1,0.8,0.1,1.3c0,0.5,0,1,0,1.5c0,0.4,0,0.9,0,1.5c0,0.6-0.1,1-0.1,1.4h-25.3v21.6h21.9
		c0.1,0.4,0.1,0.8,0.1,1.3c0,0.5,0,1,0,1.5c0,0.4,0,0.9,0,1.5c0,0.6-0.1,1-0.1,1.4h-21.9V621c-0.4,0.1-0.9,0.1-1.4,0.1
		c-0.5,0-1.1,0-1.6,0c-0.6,0-1.2,0-1.7,0c-0.6,0-1-0.1-1.4-0.1V557z"/>
	<path d="M1007.3,622.1c-4.4,0-8.3-0.8-11.7-2.4c-3.3-1.6-6.1-3.9-8.2-6.9c-2.2-2.9-3.8-6.4-4.9-10.5c-1.1-4.1-1.6-8.5-1.6-13.3
		s0.5-9.2,1.6-13.3c1.1-4,2.7-7.5,4.9-10.5c2.2-2.9,4.9-5.2,8.2-6.9c3.3-1.6,7.2-2.4,11.7-2.4c4.5,0,8.3,0.8,11.7,2.4
		c3.3,1.6,6.1,3.9,8.2,6.9c2.2,2.9,3.8,6.4,4.9,10.5c1.1,4,1.6,8.5,1.6,13.3s-0.5,9.2-1.6,13.3c-1.1,4.1-2.7,7.6-4.9,10.5
		c-2.2,2.9-4.9,5.2-8.2,6.9C1015.6,621.3,1011.7,622.1,1007.3,622.1z M1007.3,616.5c3.4,0,6.4-0.7,8.9-2c2.5-1.3,4.6-3.2,6.2-5.7
		c1.7-2.4,2.9-5.3,3.7-8.7c0.8-3.4,1.2-7.1,1.2-11.1c0-4-0.4-7.7-1.2-11.1c-0.8-3.4-2-6.3-3.7-8.7c-1.7-2.4-3.7-4.3-6.2-5.6
		c-2.5-1.3-5.5-2-8.9-2c-3.4,0-6.4,0.7-8.9,2c-2.5,1.3-4.6,3.2-6.2,5.6c-1.6,2.4-2.8,5.3-3.6,8.7c-0.8,3.4-1.2,7.1-1.2,11.1
		c0,4,0.4,7.7,1.2,11.1c0.8,3.4,2,6.3,3.6,8.7c1.6,2.4,3.7,4.3,6.2,5.7C1000.8,615.8,1003.8,616.5,1007.3,616.5z M994.1,550.9
		c-0.2-1.3-0.3-2.6-0.3-3.9c0-1.3,0.1-2.6,0.3-4c1.3-0.2,2.6-0.3,3.8-0.3c1.4,0,2.7,0.1,3.9,0.3c0.2,1.4,0.3,2.7,0.3,3.9
		c0,1.4-0.1,2.7-0.3,4c-1.2,0.2-2.5,0.3-3.8,0.3C996.7,551.1,995.4,551,994.1,550.9z M1012.7,550.9c-0.2-1.3-0.3-2.6-0.3-3.9
		c0-1.3,0.1-2.6,0.3-4c1.1-0.2,2.4-0.3,3.8-0.3c1.2,0,2.6,0.1,3.9,0.3c0.2,1.4,0.3,2.7,0.3,3.9c0,1.4-0.1,2.7-0.3,4
		c-1.4,0.2-2.6,0.3-3.8,0.3C1015.1,551.1,1013.8,551,1012.7,550.9z"/>
	<path d="M1049.5,556.7c1.3-0.1,2.4-0.2,3.4-0.3c1-0.1,1.9-0.2,2.8-0.3c0.9-0.1,1.9-0.1,2.9-0.2c1,0,2.2,0,3.6,0
		c2.8,0,5.7,0.3,8.4,0.9c2.8,0.6,5.2,1.6,7.4,3.1c2.2,1.5,4,3.4,5.3,5.9c1.3,2.5,2,5.6,2,9.3c0,2.3-0.4,4.4-1.2,6.3
		c-0.8,1.9-1.9,3.6-3.2,5.1c-1.3,1.5-2.9,2.8-4.6,3.9c-1.8,1.1-3.5,2-5.4,2.7l-0.7,0.3l20.4,27.6c-0.6,0.1-1.2,0.2-1.8,0.2
		c-0.6,0-1.2,0-1.8,0c-0.6,0-1.2,0-1.7,0c-0.6,0-1.1-0.1-1.7-0.2l-22.4-29.6V591l2-0.5c2-0.5,4-1.2,5.9-2.1c1.9-0.9,3.6-1.9,5-3.1
		c1.5-1.2,2.6-2.7,3.5-4.3c0.9-1.7,1.3-3.6,1.3-5.9c0-4.6-1.4-8.1-4.3-10.4s-6.7-3.5-11.6-3.5c-1.2,0-2.4,0-3.5,0.1
		c-1.1,0.1-2.3,0.2-3.8,0.4V621c-0.4,0.1-0.9,0.1-1.5,0.1c-0.6,0-1.1,0-1.6,0c-0.5,0-1.1,0-1.6,0c-0.5,0-1-0.1-1.4-0.1V556.7z"/>
	<path d="M1119.9,557c0.4-0.1,0.9-0.1,1.6-0.1c0.7,0,1.3,0,1.9,0c0.5,0,1.2,0,1.9,0c0.7,0,1.3,0.1,1.7,0.1l17.9,57.9l17.6-57.9
		c0.5-0.1,1-0.1,1.6-0.1c0.6,0,1.2,0,1.7,0c0.6,0,1.2,0,1.9,0c0.7,0,1.2,0.1,1.6,0.1l-21,64c-0.4,0.1-1,0.1-1.8,0.1
		c-0.8,0-1.4,0-2,0c-0.6,0-1.2,0-2,0c-0.7,0-1.3-0.1-1.7-0.1L1119.9,557z"/>
	<path d="M1182.1,557h34.3c0.1,0.4,0.1,0.8,0.1,1.3c0,0.5,0,1,0,1.5c0,0.4,0,0.9,0,1.5c0,0.6-0.1,1-0.1,1.4h-28.1v21.6h22.6
		c0.1,0.4,0.1,0.8,0.1,1.3c0,0.5,0,1,0,1.5c0,0.4,0,0.9,0,1.5c0,0.6-0.1,1-0.1,1.4h-22.6v25.5h28.9c0.1,0.4,0.1,0.8,0.1,1.3
		c0,0.5,0,1,0,1.5c0,0.4,0,0.9,0,1.5c0,0.6-0.1,1-0.1,1.4h-35.1V557z"/>
	<path d="M1241.2,562.5H1224c-0.1-0.4-0.1-0.8-0.1-1.3c0-0.5,0-1,0-1.5c0-0.4,0-0.9,0-1.4c0-0.5,0.1-1,0.1-1.3h40.5
		c0.1,0.4,0.1,0.8,0.1,1.2c0,0.5,0,0.9,0,1.4c0,0.4,0,0.9,0,1.5c0,0.6-0.1,1-0.1,1.4h-17.2V621c-0.4,0.1-0.9,0.1-1.4,0.1
		c-0.5,0-1.1,0-1.6,0c-0.6,0-1.2,0-1.7,0c-0.6,0-1-0.1-1.4-0.1V562.5z"/>
	<path d="M1276.3,557h34.3c0.1,0.4,0.1,0.8,0.1,1.3c0,0.5,0,1,0,1.5c0,0.4,0,0.9,0,1.5c0,0.6-0.1,1-0.1,1.4h-28.1v21.6h22.6
		c0.1,0.4,0.1,0.8,0.1,1.3c0,0.5,0,1,0,1.5c0,0.4,0,0.9,0,1.5c0,0.6-0.1,1-0.1,1.4h-22.6v25.5h28.9c0.1,0.4,0.1,0.8,0.1,1.3
		c0,0.5,0,1,0,1.5c0,0.4,0,0.9,0,1.5c0,0.6-0.1,1-0.1,1.4h-35.1V557z"/>
	<path d="M1325.4,557c0.4-0.1,1-0.1,1.6-0.1c0.7,0,1.3,0,1.7,0c0.5,0,1,0,1.7,0c0.7,0,1.2,0.1,1.6,0.1l30.6,53.6V557
		c0.4-0.1,0.9-0.1,1.4-0.1c0.5,0,1,0,1.6,0c0.5,0,1,0,1.6,0c0.6,0,1.1,0.1,1.5,0.1v64c-0.4,0.1-0.9,0.1-1.6,0.1c-0.7,0-1.3,0-1.8,0
		c-0.5,0-1,0-1.7,0c-0.7,0-1.2-0.1-1.6-0.1l-30.6-53.1V621c-0.4,0.1-0.9,0.1-1.4,0.1c-0.5,0-1,0-1.6,0c-0.6,0-1.2,0-1.7,0
		c-0.5,0-1-0.1-1.3-0.1V557z"/>
	<path d="M1385.3,613.9c0.8,0.2,1.7,0.5,2.6,0.8c0.9,0.3,1.9,0.6,3,0.8c1.1,0.2,2.3,0.4,3.7,0.6c1.4,0.2,2.9,0.3,4.7,0.3
		c2.8,0,5.3-0.3,7.3-1c2-0.7,3.7-1.6,5.1-2.8c1.3-1.2,2.3-2.5,3-4.1c0.7-1.6,1-3.3,1-5.1c0-1.8-0.2-3.3-0.7-4.6
		c-0.4-1.3-1.2-2.4-2.3-3.5c-1.1-1.1-2.6-2.1-4.5-3.1c-1.9-1-4.3-2-7.3-3.2c-2.1-0.8-4-1.6-5.9-2.5c-1.9-0.9-3.5-2-4.9-3.2
		c-1.4-1.3-2.6-2.8-3.4-4.6c-0.8-1.8-1.2-4-1.2-6.7c0-4.8,1.7-8.7,5.2-11.7c3.5-3,8.5-4.5,15.2-4.5c1.3,0,2.6,0.1,4,0.2
		c1.3,0.1,2.6,0.3,3.7,0.4c1.2,0.2,2.2,0.4,3.2,0.6c1,0.2,1.8,0.4,2.4,0.6c-0.1,0.9-0.3,1.8-0.5,2.7c-0.2,0.9-0.5,1.8-0.8,2.6
		c-1.4-0.5-3.2-0.9-5.5-1.3c-2.2-0.4-4.4-0.6-6.6-0.6c-4.9,0-8.5,1-10.6,3c-2.1,2-3.2,4.6-3.2,7.7c0,1.6,0.3,3,1,4.2
		c0.7,1.2,1.6,2.2,2.7,3.1c1.2,0.9,2.5,1.7,4.1,2.4c1.6,0.7,3.3,1.5,5.2,2.2c2.5,1,4.8,2,7,3.1c2.2,1.1,4,2.3,5.6,3.7
		c1.5,1.4,2.8,3.1,3.6,5c0.9,1.9,1.3,4.3,1.3,7c0,3.1-0.6,5.8-1.6,8.2c-1.1,2.4-2.7,4.4-4.7,6.1c-2,1.6-4.5,2.9-7.4,3.7
		c-2.9,0.9-6.2,1.3-9.8,1.3c-3.5,0-6.4-0.3-8.7-0.8s-4.5-1.1-6.5-1.7c0.1-0.9,0.3-1.9,0.6-2.9C1384.7,615.6,1385,614.7,1385.3,613.9
		z"/>
	<path d="M1437,557c0.4-0.1,0.9-0.1,1.5-0.1c0.6,0,1.1,0,1.6,0c0.5,0,1.1,0,1.6,0c0.5,0,1,0.1,1.4,0.1v64c-0.4,0.1-0.9,0.1-1.4,0.1
		c-0.5,0-1.1,0-1.6,0c-0.6,0-1.2,0-1.7,0c-0.6,0-1-0.1-1.4-0.1V557z M1447.3,588.3l22.5-31.2c0.5-0.1,1-0.1,1.5-0.1c0.5,0,1,0,1.5,0
		c0.7,0,1.3,0,1.9,0c0.6,0,1.2,0.1,1.9,0.1l-21.9,30.6l25.3,33.4c-0.7,0.1-1.3,0.1-2,0.1c-0.7,0-1.4,0-2,0c-0.5,0-1.1,0-1.6,0
		c-0.6,0-1.1-0.1-1.6-0.1L1447.3,588.3z"/>
	<path d="M1504.9,557c0.4-0.1,1-0.1,1.7-0.1c0.7,0,1.4,0,2,0c0.7,0,1.3,0,2,0c0.7,0,1.2,0.1,1.6,0.1l21.4,64
		c-0.4,0.1-0.9,0.1-1.5,0.1c-0.7,0-1.3,0-1.9,0c-0.5,0-1.1,0-1.7,0c-0.6,0-1.1-0.1-1.5-0.1l-5.3-16.3h-26.3l-5.1,16.3
		c-0.5,0.1-1,0.1-1.6,0.1c-0.6,0-1.2,0-1.7,0c-0.6,0-1.2,0-1.8,0c-0.6,0-1.1-0.1-1.5-0.1L1504.9,557z M1519.9,599l-11.5-35.6
		l-11.3,35.6H1519.9z"/>
	<path d="M1545.4,557c0.6-0.1,1.4-0.2,2.5-0.3c1.1-0.1,2.2-0.3,3.5-0.4c1.3-0.1,2.6-0.2,3.9-0.3c1.3-0.1,2.5-0.1,3.6-0.1
		c3.5,0,6.7,0.4,9.5,1.1c2.8,0.7,5.3,1.8,7.3,3.4c2,1.5,3.6,3.5,4.8,6c1.1,2.5,1.7,5.4,1.7,8.9c0,3.7-0.6,6.9-1.9,9.6
		c-1.3,2.7-3,4.8-5.2,6.5c-2.2,1.7-4.7,2.9-7.6,3.6c-2.9,0.8-5.9,1.2-9,1.2c-1.4,0-2.6,0-3.6-0.1c-1-0.1-2.2-0.1-3.5-0.3V621
		c-0.4,0.1-0.9,0.1-1.4,0.1c-0.5,0-1.1,0-1.6,0c-0.6,0-1.2,0-1.7,0c-0.6,0-1-0.1-1.4-0.1V557z M1551.6,590.2
		c0.6,0.1,1.1,0.1,1.6,0.1c0.4,0,0.9,0.1,1.3,0.1c0.4,0,0.9,0.1,1.5,0.1c0.6,0,1.3,0,2.2,0c2.1,0,4.2-0.2,6.3-0.5
		c2.1-0.4,4-1.1,5.7-2.2c1.7-1.1,3.1-2.6,4.1-4.6c1-2,1.6-4.6,1.6-7.9c0-2.6-0.4-4.8-1.2-6.5c-0.8-1.7-1.9-3.2-3.4-4.2
		c-1.5-1.1-3.3-1.8-5.4-2.3c-2.1-0.5-4.5-0.7-7.1-0.7c-1.5,0-2.9,0-4.1,0.1c-1.2,0.1-2.2,0.2-2.9,0.3V590.2z"/>
	<path d="M1595.8,557c0.4-0.1,0.8-0.1,1.4-0.1c0.6,0,1.1,0,1.7,0c0.5,0,1.1,0,1.6,0c0.5,0,1,0.1,1.4,0.1v58.4h27.3
		c0.1,0.4,0.1,0.8,0.1,1.4c0,0.6,0,1.1,0,1.5c0,0.5,0,1,0,1.5c0,0.5-0.1,0.9-0.1,1.3h-33.5V557z"/>
	<path d="M1641.1,557c0.4-0.1,0.9-0.1,1.5-0.1c0.6,0,1.1,0,1.6,0c0.5,0,1.1,0,1.6,0c0.5,0,1,0.1,1.4,0.1v64
		c-0.4,0.1-0.9,0.1-1.4,0.1c-0.5,0-1.1,0-1.6,0c-0.6,0-1.2,0-1.7,0c-0.6,0-1-0.1-1.4-0.1V557z"/>
	<path d="M1704.7,588c0.4-0.1,0.9-0.1,1.5-0.1c0.6,0,1.1,0,1.6,0c0.5,0,1.1,0,1.6,0c0.5,0,1,0.1,1.4,0.1v31.1c-1,0.5-2.2,1-3.6,1.3
		c-1.4,0.4-2.9,0.7-4.5,0.9c-1.6,0.2-3.2,0.4-4.9,0.5c-1.7,0.1-3.3,0.2-4.9,0.2c-4.3,0-8.2-0.7-11.9-2s-6.9-3.4-9.5-6.1
		c-2.7-2.7-4.8-6.1-6.3-10.1c-1.5-4-2.3-8.7-2.3-14.1c0-5.3,0.7-10.1,2.2-14.3c1.5-4.2,3.5-7.7,6.2-10.6c2.6-2.9,5.8-5.1,9.3-6.6
		s7.5-2.3,11.7-2.3c3.7,0,6.9,0.3,9.3,0.8c2.5,0.5,4.5,1,6.1,1.5c-0.1,1.1-0.3,2-0.5,2.8c-0.2,0.8-0.5,1.7-0.9,2.7
		c-1.3-0.5-3.1-1-5.3-1.5c-2.2-0.5-5-0.8-8.4-0.8c-3.4,0-6.5,0.6-9.3,1.9c-2.8,1.3-5.3,3.1-7.3,5.6c-2,2.4-3.6,5.4-4.8,8.9
		c-1.2,3.5-1.7,7.5-1.7,11.9c0,4.6,0.6,8.5,1.9,11.9c1.2,3.4,2.9,6.1,5.1,8.3c2.1,2.2,4.6,3.8,7.5,4.9c2.9,1.1,5.9,1.6,9.2,1.6
		c2.7,0,4.9-0.1,6.7-0.3c1.8-0.2,3.4-0.5,4.7-1V588z"/>
	<path d="M1752.1,557h31.4c0.1,0.4,0.1,0.8,0.1,1.3c0,0.5,0,1,0,1.5c0,0.4,0,0.9,0,1.5c0,0.6-0.1,1-0.1,1.4h-25.3v21.6h21.9
		c0.1,0.4,0.1,0.8,0.1,1.3c0,0.5,0,1,0,1.5c0,0.4,0,0.9,0,1.5c0,0.6-0.1,1-0.1,1.4h-21.9V621c-0.4,0.1-0.9,0.1-1.4,0.1
		c-0.5,0-1.1,0-1.6,0c-0.6,0-1.2,0-1.7,0c-0.6,0-1-0.1-1.4-0.1V557z"/>
	<path d="M1821,622.1c-4.5,0-8.3-0.8-11.7-2.4c-3.3-1.6-6.1-3.9-8.2-6.9c-2.2-2.9-3.8-6.4-4.9-10.5c-1.1-4.1-1.6-8.5-1.6-13.3
		s0.5-9.2,1.6-13.3c1.1-4,2.7-7.5,4.9-10.5c2.2-2.9,4.9-5.2,8.2-6.9c3.3-1.6,7.2-2.4,11.7-2.4s8.3,0.8,11.7,2.4
		c3.3,1.6,6.1,3.9,8.2,6.9c2.2,2.9,3.8,6.4,4.9,10.5c1.1,4,1.6,8.5,1.6,13.3s-0.5,9.2-1.6,13.3c-1.1,4.1-2.7,7.6-4.9,10.5
		c-2.2,2.9-4.9,5.2-8.2,6.9C1829.3,621.3,1825.4,622.1,1821,622.1z M1821,616.5c3.4,0,6.4-0.7,8.9-2s4.6-3.2,6.2-5.7
		c1.7-2.4,2.9-5.3,3.7-8.7c0.8-3.4,1.2-7.1,1.2-11.1c0-4-0.4-7.7-1.2-11.1c-0.8-3.4-2-6.3-3.7-8.7c-1.7-2.4-3.7-4.3-6.2-5.6
		c-2.5-1.3-5.5-2-8.9-2c-3.4,0-6.4,0.7-8.9,2c-2.5,1.3-4.6,3.2-6.2,5.6c-1.6,2.4-2.8,5.3-3.6,8.7s-1.2,7.1-1.2,11.1
		c0,4,0.4,7.7,1.2,11.1s2,6.3,3.6,8.7c1.6,2.4,3.7,4.3,6.2,5.7C1814.6,615.8,1817.5,616.5,1821,616.5z"/>
	<path d="M1863.2,556.7c1.3-0.1,2.4-0.2,3.4-0.3c1-0.1,1.9-0.2,2.8-0.3c0.9-0.1,1.9-0.1,2.9-0.2c1,0,2.2,0,3.6,0
		c2.8,0,5.7,0.3,8.4,0.9c2.8,0.6,5.2,1.6,7.4,3.1c2.2,1.5,4,3.4,5.3,5.9c1.3,2.5,2,5.6,2,9.3c0,2.3-0.4,4.4-1.2,6.3
		c-0.8,1.9-1.9,3.6-3.2,5.1c-1.3,1.5-2.9,2.8-4.6,3.9c-1.8,1.1-3.5,2-5.4,2.7l-0.7,0.3l20.4,27.6c-0.6,0.1-1.2,0.2-1.8,0.2
		c-0.6,0-1.2,0-1.8,0c-0.6,0-1.2,0-1.7,0c-0.6,0-1.1-0.1-1.7-0.2l-22.4-29.6V591l2-0.5c2-0.5,4-1.2,5.9-2.1c1.9-0.9,3.6-1.9,5-3.1
		c1.5-1.2,2.6-2.7,3.5-4.3c0.9-1.7,1.3-3.6,1.3-5.9c0-4.6-1.4-8.1-4.3-10.4s-6.7-3.5-11.6-3.5c-1.2,0-2.4,0-3.5,0.1
		c-1.1,0.1-2.3,0.2-3.8,0.4V621c-0.4,0.1-0.9,0.1-1.5,0.1c-0.6,0-1.1,0-1.6,0c-0.5,0-1.1,0-1.6,0c-0.5,0-1-0.1-1.4-0.1V556.7z"/>
	<path d="M1914.1,613.9c0.8,0.2,1.7,0.5,2.6,0.8c0.9,0.3,1.9,0.6,3,0.8c1.1,0.2,2.3,0.4,3.7,0.6c1.4,0.2,2.9,0.3,4.7,0.3
		c2.8,0,5.3-0.3,7.3-1c2-0.7,3.7-1.6,5.1-2.8c1.3-1.2,2.3-2.5,3-4.1c0.7-1.6,1-3.3,1-5.1c0-1.8-0.2-3.3-0.7-4.6
		c-0.4-1.3-1.2-2.4-2.3-3.5c-1.1-1.1-2.6-2.1-4.5-3.1c-1.9-1-4.3-2-7.3-3.2c-2.1-0.8-4-1.6-5.9-2.5c-1.9-0.9-3.5-2-4.9-3.2
		c-1.4-1.3-2.6-2.8-3.4-4.6c-0.8-1.8-1.2-4-1.2-6.7c0-4.8,1.7-8.7,5.2-11.7c3.5-3,8.5-4.5,15.2-4.5c1.3,0,2.6,0.1,4,0.2
		c1.3,0.1,2.6,0.3,3.7,0.4c1.2,0.2,2.2,0.4,3.2,0.6c1,0.2,1.8,0.4,2.4,0.6c-0.1,0.9-0.3,1.8-0.5,2.7c-0.2,0.9-0.5,1.8-0.8,2.6
		c-1.4-0.5-3.2-0.9-5.5-1.3c-2.2-0.4-4.4-0.6-6.6-0.6c-4.9,0-8.5,1-10.6,3c-2.1,2-3.2,4.6-3.2,7.7c0,1.6,0.3,3,1,4.2
		c0.7,1.2,1.6,2.2,2.7,3.1c1.2,0.9,2.5,1.7,4.1,2.4c1.6,0.7,3.3,1.5,5.2,2.2c2.5,1,4.8,2,7,3.1c2.2,1.1,4,2.3,5.6,3.7
		c1.5,1.4,2.8,3.1,3.6,5c0.9,1.9,1.3,4.3,1.3,7c0,3.1-0.5,5.8-1.6,8.2c-1.1,2.4-2.7,4.4-4.7,6.1c-2,1.6-4.5,2.9-7.4,3.7
		c-2.9,0.9-6.2,1.3-9.8,1.3c-3.5,0-6.4-0.3-8.7-0.8c-2.3-0.5-4.5-1.1-6.5-1.7c0.1-0.9,0.3-1.9,0.6-2.9
		C1913.4,615.6,1913.7,614.7,1914.1,613.9z"/>
	<path d="M1965.7,557c0.4-0.1,0.9-0.1,1.5-0.1c0.6,0,1.1,0,1.6,0c0.5,0,1.1,0,1.6,0c0.5,0,1,0.1,1.4,0.1v64
		c-0.4,0.1-0.9,0.1-1.4,0.1c-0.5,0-1.1,0-1.6,0c-0.6,0-1.2,0-1.7,0c-0.6,0-1-0.1-1.4-0.1V557z M1976,588.3l22.5-31.2
		c0.5-0.1,1-0.1,1.5-0.1c0.5,0,1,0,1.5,0c0.7,0,1.3,0,1.9,0c0.6,0,1.2,0.1,1.9,0.1l-21.9,30.6l25.3,33.4c-0.7,0.1-1.3,0.1-2,0.1
		c-0.7,0-1.4,0-2,0c-0.5,0-1.1,0-1.6,0c-0.6,0-1.1-0.1-1.6-0.1L1976,588.3z"/>
	<path d="M2019.5,557c0.4-0.1,1-0.1,1.6-0.1c0.7,0,1.3,0,1.7,0c0.5,0,1,0,1.7,0c0.7,0,1.2,0.1,1.6,0.1l30.6,53.6V557
		c0.4-0.1,0.9-0.1,1.4-0.1c0.5,0,1,0,1.6,0c0.5,0,1,0,1.6,0c0.6,0,1.1,0.1,1.5,0.1v64c-0.4,0.1-0.9,0.1-1.6,0.1c-0.7,0-1.3,0-1.8,0
		c-0.5,0-1,0-1.7,0c-0.7,0-1.2-0.1-1.6-0.1l-30.6-53.1V621c-0.4,0.1-0.9,0.1-1.4,0.1c-0.5,0-1,0-1.6,0c-0.6,0-1.2,0-1.7,0
		c-0.5,0-1-0.1-1.3-0.1V557z"/>
	<path d="M2081.8,557c0.4-0.1,0.9-0.1,1.5-0.1c0.6,0,1.1,0,1.6,0c0.5,0,1.1,0,1.6,0c0.5,0,1,0.1,1.4,0.1v64
		c-0.4,0.1-0.9,0.1-1.4,0.1c-0.5,0-1.1,0-1.6,0c-0.6,0-1.2,0-1.7,0c-0.6,0-1-0.1-1.4-0.1V557z"/>
	<path d="M2107,557c0.4-0.1,1-0.1,1.6-0.1c0.7,0,1.3,0,1.7,0c0.5,0,1,0,1.7,0c0.7,0,1.2,0.1,1.6,0.1l30.6,53.6V557
		c0.4-0.1,0.9-0.1,1.4-0.1c0.5,0,1,0,1.6,0c0.5,0,1,0,1.6,0c0.6,0,1.1,0.1,1.5,0.1v64c-0.4,0.1-0.9,0.1-1.6,0.1c-0.7,0-1.3,0-1.8,0
		c-0.5,0-1,0-1.7,0c-0.7,0-1.2-0.1-1.6-0.1l-30.6-53.1V621c-0.4,0.1-0.9,0.1-1.4,0.1c-0.5,0-1,0-1.6,0c-0.6,0-1.2,0-1.7,0
		c-0.5,0-1-0.1-1.3-0.1V557z"/>
	<path d="M2207.8,588c0.4-0.1,0.9-0.1,1.5-0.1c0.6,0,1.1,0,1.6,0c0.5,0,1.1,0,1.6,0c0.5,0,1,0.1,1.4,0.1v31.1c-1,0.5-2.2,1-3.6,1.3
		c-1.4,0.4-2.9,0.7-4.5,0.9c-1.6,0.2-3.2,0.4-4.9,0.5c-1.7,0.1-3.3,0.2-4.9,0.2c-4.3,0-8.2-0.7-11.9-2s-6.9-3.4-9.5-6.1
		c-2.7-2.7-4.8-6.1-6.3-10.1c-1.5-4-2.3-8.7-2.3-14.1c0-5.3,0.7-10.1,2.2-14.3c1.5-4.2,3.5-7.7,6.2-10.6c2.6-2.9,5.8-5.1,9.3-6.6
		s7.5-2.3,11.7-2.3c3.7,0,6.9,0.3,9.3,0.8c2.5,0.5,4.5,1,6.1,1.5c-0.1,1.1-0.3,2-0.5,2.8c-0.2,0.8-0.5,1.7-0.9,2.7
		c-1.3-0.5-3.1-1-5.3-1.5c-2.2-0.5-5-0.8-8.4-0.8c-3.4,0-6.5,0.6-9.3,1.9c-2.8,1.3-5.3,3.1-7.3,5.6c-2,2.4-3.6,5.4-4.8,8.9
		c-1.2,3.5-1.7,7.5-1.7,11.9c0,4.6,0.6,8.5,1.9,11.9c1.2,3.4,2.9,6.1,5.1,8.3c2.1,2.2,4.6,3.8,7.5,4.9c2.9,1.1,5.9,1.6,9.2,1.6
		c2.7,0,4.9-0.1,6.7-0.3c1.8-0.2,3.4-0.5,4.7-1V588z"/>
</g>
<line class="st2" x1="936" y1="509.4" x2="2212.7" y2="509.4"/>
<line class="st2" x1="790.7" y1="142.8" x2="790.7" y2="621"/>
</svg>
