<svg xmlns="http://www.w3.org/2000/svg" viewBox="0 0 70.866 17.246"><defs><style>.cls-1{fill:#0084c9}</style></defs><g id="Layer_2" data-name="Layer 2"><g id="Layer_1-2" data-name="Layer 1"><path class="cls-1" d="M8.623 17.246a8.622 8.622 0 0 0 7.7-4.737L8.49 9.384a2.018 2.018 0 0 0-.69-.162 1.54 1.54 0 0 0-.677.217L1.1 12.849a8.624 8.624 0 0 0 7.523 4.397ZM26.084.36h-2.906a1.183 1.183 0 0 0-1.221 1.169L20.21 16.87h10.208l.394-3.458h-6.231ZM58.6 16.869 55.057.36h-4.142c-.726 0-.948.522-1.236 1.17-.023.05-4.468 10.2-6.116 13.957l-2.848-7.11L46.116.36h-4.762l-5.012 7.72.9-7.72h-2.906a1.222 1.222 0 0 0-1.173 1.174c-.313 2.79-1.5 12.954-1.772 15.336h3.949c.148-1.335.931-8.151.931-8.151l2.994 8.151h8.407l1.2-3.156h4.978l.441 3.156ZM49.968 10.8l2.364-6.23.063-.157a.061.061 0 0 1 .114.025l.913 6.366Z"/><path class="cls-1" d="M66.694.36h-6.262l-1.886 16.506h6.325c3.4 0 5.174-1.574 5.51-4.531l.01-.093c.259-2.284-.653-3.516-2.3-3.864a3.905 3.905 0 0 0 2.722-3.61l.008-.1C71.116 2.114 69.935.36 66.694.36Zm-.12 11.34-.012.093a1.892 1.892 0 0 1-2.04 1.916h-1.629l.442-3.9h1.518c1.381-.004 1.863.642 1.721 1.891Zm.478-6.559-.012.093a1.623 1.623 0 0 1-1.879 1.686h-1.5l.39-3.417h1.5c1.189-.003 1.631.506 1.501 1.636Zm-49.409-.527L18.13.366h-4.275l1.055 1.19-.628.562A8.622 8.622 0 0 0 0 8.624v.25l4.56-2.38a1.56 1.56 0 0 1 .64-.176 1.748 1.748 0 0 1 .636.176l10.923 5c.036-.1.069-.2.1-.3.022-.071.039-.144.059-.214s.031-.157.051-.235L7.931 6.363s1.406-.774 1.638-.9a1.012 1.012 0 0 1 .546-.15 1.028 1.028 0 0 1 .533.178s3 1.769 6.55 3.871c.023-.246.048-.491.048-.742a8.581 8.581 0 0 0-1.328-4.6l.67-.6Z"/></g></g></svg>